<svg xmlns="http://www.w3.org/2000/svg" version="1.1" xlink="http://www.w3.org/1999/xlink" xmlns:svgjs="http://svgjs.com/svgjs" width="300" height="56.22141332590698"><defs id="SvgjsDefs1227"/><g id="SvgjsG1228" transform="scale(1.1999040076793857)" opacity="1"><g id="SvgjsG1229" class="H_O5-1IvFJ" transform="translate(-0.05896082300734706, -4.256536711215961) scale(0.540924981718739)" light-content="false" fill="#118a2d"><path d="M89.633 72.435H79L67.251 84.184 56.062 72.435H10.414V18.173h79.219v54.262zM10.414 7.869C4.722 7.869.109 12.483.109 18.174v54.261c0 5.69 4.613 10.306 10.305 10.306h41.23l8.145 8.552a10.296 10.296 0 0 0 7.335 3.196h.127a10.3 10.3 0 0 0 7.284-3.017l8.733-8.731h6.363c5.689 0 10.305-4.615 10.305-10.306l.002-54.261c0-5.691-4.612-10.305-10.305-10.305H10.414z"/><path d="M38.547 40.832h.026c2.979-.08 5.059-2.064 5.059-4.825 0-2.833-2.139-4.889-5.084-4.889-2.862 0-5.021 2.074-5.021 4.825-.001 2.832 2.111 4.889 5.02 4.889zm22.888 0h.028c2.978-.08 5.056-2.064 5.056-4.825 0-2.833-2.137-4.889-5.083-4.889-2.861 0-5.021 2.074-5.021 4.825-.001 2.832 2.111 4.889 5.02 4.889zm17.875 1.164c-1.26-1.163-3.405-1.077-4.569.183a33.73 33.73 0 0 1-26.09 10.818c-8.968-.361-17.258-4.196-23.346-10.799-1.162-1.258-3.306-1.347-4.567-.184a3.236 3.236 0 0 0-.185 4.567c7.254 7.869 17.141 12.442 27.835 12.878.542.022 1.079.032 1.617.032.58 0 1.157-.013 1.736-.036C62.396 59 72.25 54.42 79.494 46.561a3.217 3.217 0 0 0 .854-2.322 3.224 3.224 0 0 0-1.038-2.243z"/></g><g id="SvgjsG1230" class="text" transform="translate(68.42, 36.94246293290544) scale(1)" light-content="false" fill="#252525"><path d="M19.04 -25.91L1.58 -25.91L1.58 -20.98L7.64 -20.98L7.64 0L12.74 0L12.74 -20.98L19.04 -20.98Z M27.61 -14.08C26.88 -13.42 26.29 -12.68 25.87 -11.86L25.48 -15.38L21.05 -15.38L21.05 0L25.94 0L25.94 -6.02C25.94 -6.86 26.14 -7.69 26.54 -8.5C26.94 -9.31 27.51 -9.97 28.27 -10.49C29.02 -11.01 29.88 -11.26 30.87 -11.26C31.13 -11.26 31.33 -11.25 31.47 -11.23L31.72 -16.16C31.27 -16.16 30.66 -15.97 29.88 -15.61C29.11 -15.25 28.35 -14.74 27.61 -14.08Z M51.5 -15.38L46.92 -15.38L46.6 -13.8C45.99 -14.55 45.29 -15.13 44.49 -15.54C43.69 -15.95 42.62 -16.16 41.25 -16.16C39.94 -16.16 38.71 -15.8 37.56 -15.1C36.41 -14.4 35.49 -13.41 34.8 -12.13C34.1 -10.85 33.76 -9.36 33.76 -7.67C33.76 -5 34.47 -2.98 35.89 -1.62C37.31 -0.26 39.15 0.42 41.43 0.42C43.38 0.42 45.09 -0.35 46.57 -1.9L46.57 0L51.5 0ZM46.57 -5.91C45.8 -4.36 44.55 -3.59 42.84 -3.59C42.11 -3.59 41.44 -3.78 40.81 -4.15C40.19 -4.53 39.69 -5.05 39.32 -5.72C38.94 -6.39 38.76 -7.12 38.76 -7.92C38.76 -9.14 39.14 -10.15 39.9 -10.95C40.66 -11.75 41.58 -12.14 42.66 -12.14C43.6 -12.14 44.42 -11.92 45.11 -11.48C45.8 -11.03 46.29 -10.43 46.57 -9.68Z M72.48 -15.38L66.99 -15.38L63.82 -8.06L60.23 -15.38L54.38 -15.38L63.61 0.32L63.75 0.32Z M85.57 -4.79C84.52 -4.11 83.49 -3.77 82.51 -3.77C81.22 -3.77 80.2 -4.2 79.45 -5.07L90.71 -8.66C90.29 -11.05 89.37 -12.89 87.95 -14.19C86.53 -15.48 84.71 -16.12 82.51 -16.12C80.89 -16.12 79.4 -15.75 78.04 -15.01C76.68 -14.27 75.6 -13.27 74.82 -12C74.03 -10.74 73.64 -9.35 73.64 -7.85C73.64 -6.23 73.98 -4.79 74.66 -3.54C75.34 -2.28 76.34 -1.31 77.67 -0.62C78.99 0.08 80.57 0.42 82.4 0.42C83.25 0.42 84.14 0.28 85.08 0C86.02 -0.28 86.91 -0.66 87.75 -1.13ZM79.48 -11.16C80.14 -11.91 81.02 -12.28 82.12 -12.28C83.72 -12.28 84.76 -11.56 85.25 -10.1L78.5 -7.81L78.5 -8.13C78.5 -9.4 78.82 -10.41 79.48 -11.16Z M99.23 -27.77L94.3 -27.77L94.3 0L99.23 0Z M123.99 -1.28C125.01 -1.74 125.72 -2.18 126.12 -2.6L126.12 -13.55L116.48 -13.55L116.48 -8.62L120.95 -8.62L120.95 -5.49C120.17 -5.05 118.99 -4.82 117.39 -4.82C115.73 -4.82 114.24 -5.14 112.94 -5.77C111.64 -6.41 110.62 -7.32 109.89 -8.5C109.17 -9.69 108.8 -11.08 108.8 -12.67C108.8 -15.44 109.55 -17.53 111.04 -18.94C112.53 -20.35 114.68 -21.05 117.5 -21.05C118.3 -21.05 119.29 -20.89 120.47 -20.57C121.66 -20.26 122.59 -19.91 123.27 -19.54L124.92 -24.29C123.87 -24.85 122.65 -25.31 121.26 -25.66C119.88 -26.01 118.4 -26.19 116.83 -26.19C114.39 -26.19 112.16 -25.67 110.14 -24.62C108.12 -23.58 106.52 -22.01 105.32 -19.91C104.12 -17.81 103.52 -15.24 103.52 -12.21C103.52 -9.8 104.09 -7.64 105.21 -5.76C106.34 -3.87 107.94 -2.39 110.02 -1.32C112.09 -0.25 114.51 0.28 117.25 0.28C118.26 0.28 119.38 0.13 120.61 -0.16C121.84 -0.45 122.97 -0.83 123.99 -1.28Z M146.61 -15.38L141.68 -15.38L141.68 -9.12C141.68 -7.45 141.36 -6.09 140.71 -5.03C140.07 -3.98 139.2 -3.45 138.12 -3.45C136.81 -3.45 136.12 -4.2 136.05 -5.7L136.05 -15.38L131.12 -15.38L131.12 -3.87C131.14 -2.53 131.62 -1.43 132.56 -0.56C133.5 0.31 134.68 0.74 136.08 0.74C137.4 0.74 138.54 0.45 139.52 -0.12C140.49 -0.7 141.25 -1.48 141.79 -2.46L142.14 0L146.61 0Z M158.24 -14.08C157.5 -13.42 156.92 -12.68 156.5 -11.86L156.11 -15.38L151.68 -15.38L151.68 0L156.57 0L156.57 -6.02C156.57 -6.86 156.77 -7.69 157.17 -8.5C157.57 -9.31 158.14 -9.97 158.89 -10.49C159.64 -11.01 160.51 -11.26 161.5 -11.26C161.76 -11.26 161.96 -11.25 162.1 -11.23L162.34 -16.16C161.9 -16.16 161.29 -15.97 160.51 -15.61C159.74 -15.25 158.98 -14.74 158.24 -14.08Z M181.6 -15.38L176.67 -15.38L176.67 -9.12C176.67 -7.45 176.35 -6.09 175.7 -5.03C175.06 -3.98 174.19 -3.45 173.11 -3.45C171.8 -3.45 171.11 -4.2 171.04 -5.7L171.04 -15.38L166.11 -15.38L166.11 -3.87C166.13 -2.53 166.61 -1.43 167.55 -0.56C168.49 0.31 169.66 0.74 171.07 0.74C172.39 0.74 173.53 0.45 174.5 -0.12C175.48 -0.7 176.23 -1.48 176.77 -2.46L177.13 0L181.6 0Z"/></g></g></svg>