<svg xmlns="http://www.w3.org/2000/svg" version="1.1" xlink="http://www.w3.org/1999/xlink" xmlns:svgjs="http://svgjs.com/svgjs" width="269.57365834338486" height="147"><defs id="SvgjsDefs1396"/><g id="SvgjsG1397" transform="scale(2.117126037409761)" opacity="1"><g id="SvgjsG1398" class="nHtQyIP1NJ" transform="translate(40.54176564780312, -3.123035568124892) scale(0.4624598489410028)" light-content="false" fill="#f9c006"><path fill-rule="evenodd" clip-rule="evenodd" d="M30.33 16.31c24.393-26.687 54.364 9.43 24.999 24.366C29.309 53.91 20.915 61.587 26.85 82.13c-8.86-3.952-25.199-30.27 5.063-46.201 18.726-9.858 14.872-21.94-1.583-19.619zm31.012 76.895c-1.055-5.063-2.914-16.675-9.981-24.375 9.071-5.17 20.049-6.282 34.185 2.052.422-5.063-3.441-9.541-10.614-13.761 14.366 4.379 11.012-14.399-.615-20.876 1.418-6.969-.444-10.061-3.797-11.392-.508 15.774-12.396 18.26-28.163 27.214-27.675 15.716-9.495 42.383 18.985 41.138zm12.373-47.209a2.195 2.195 0 1 0 4.39 0 2.195 2.195 0 0 0-4.39 0zM57.8 70.135c4.375 5.714 6.756 11.907 6.732 18.677l12.605.726c-.271-6.215-3.204-13.055-10.691-20.327l-8.646.924z"/></g><g id="SvgjsG1399" class="text" transform="translate(-1.0800000000000054, 68.59375) scale(1)" light-content="false" fill="#312703"><path d="M14.06 -7.05C14.02 -7.15 13.96 -7.23 13.9 -7.29C13.84 -7.35 13.77 -7.41 13.69 -7.48C13.64 -7.51 13.6 -7.54 13.56 -7.57C13.52 -7.6 13.48 -7.63 13.45 -7.66C13.42 -7.7 13.39 -7.72 13.35 -7.75C13.31 -7.77 13.22 -7.86 13.08 -8.02C12.97 -8.12 12.91 -8.2 12.91 -8.25C12.93 -8.31 12.97 -8.36 13.03 -8.38C13.09 -8.4 13.21 -8.5 13.38 -8.67C13.41 -8.69 13.44 -8.7 13.46 -8.71C13.49 -8.71 13.54 -8.76 13.62 -8.84C13.66 -8.84 13.74 -8.88 13.85 -8.98C13.88 -9.01 13.91 -9.04 13.95 -9.06C13.98 -9.08 14.05 -9.14 14.16 -9.23C14.16 -9.27 14.23 -9.33 14.39 -9.42C14.42 -9.45 14.5 -9.52 14.63 -9.61C14.66 -9.66 14.7 -9.69 14.74 -9.71C14.79 -9.74 14.88 -9.81 15 -9.94L15.23 -10.15C15.27 -10.16 15.29 -10.18 15.29 -10.18C15.3 -10.19 15.35 -10.23 15.45 -10.31C15.46 -10.34 15.48 -10.36 15.52 -10.36C15.55 -10.36 15.61 -10.4 15.7 -10.48C15.73 -10.52 15.76 -10.57 15.77 -10.61C15.79 -10.64 15.81 -10.68 15.84 -10.71C15.86 -10.74 15.87 -10.76 15.89 -10.76C15.91 -10.76 15.97 -10.81 16.08 -10.92C16.14 -10.98 16.17 -11.09 16.17 -11.23L16.17 -11.72C16.17 -11.75 16.15 -11.86 16.1 -12.05C16.07 -12.09 16.04 -12.14 16.02 -12.18C16 -12.21 15.96 -12.3 15.91 -12.42C15.9 -12.53 15.83 -12.68 15.7 -12.87L15.56 -13.15C15.53 -13.2 15.51 -13.25 15.5 -13.3C15.5 -13.36 15.45 -13.45 15.38 -13.57C15.36 -13.59 15.32 -13.66 15.26 -13.8C15.24 -13.84 15.19 -13.92 15.09 -14.06C15.06 -14.13 15 -14.23 14.91 -14.37C14.88 -14.41 14.86 -14.46 14.85 -14.51C14.84 -14.55 14.78 -14.64 14.67 -14.77C14.61 -14.84 14.54 -14.95 14.46 -15.09L14.32 -15.33C14.3 -15.36 14.29 -15.38 14.27 -15.39C14.26 -15.39 14.22 -15.45 14.16 -15.56C14.16 -15.58 14.15 -15.59 14.14 -15.6C14.14 -15.61 14.08 -15.68 13.97 -15.82C13.94 -15.88 13.91 -15.94 13.9 -16C13.88 -16.05 13.86 -16.11 13.83 -16.17C13.8 -16.22 13.77 -16.26 13.76 -16.29C13.74 -16.32 13.67 -16.42 13.55 -16.59C13.5 -16.62 13.46 -16.65 13.44 -16.68C13.42 -16.7 13.34 -16.8 13.22 -16.97L12.98 -17.09L12.82 -17.17C12.77 -17.19 12.65 -17.22 12.45 -17.25C12.35 -17.28 12.2 -17.31 12 -17.34C11.95 -17.34 11.91 -17.35 11.86 -17.36C11.81 -17.36 11.76 -17.37 11.7 -17.39C11.65 -17.41 11.59 -17.41 11.51 -17.41L11.3 -17.41C11.23 -17.4 11.18 -17.38 11.13 -17.36C11.09 -17.33 11.03 -17.31 10.97 -17.3C10.86 -17.28 10.76 -17.29 10.66 -17.31C10.57 -17.33 10.48 -17.31 10.38 -17.25C10.35 -17.28 10.31 -17.3 10.25 -17.3L10.13 -17.3C10.05 -17.3 9.97 -17.3 9.9 -17.32C9.83 -17.34 9.71 -17.34 9.54 -17.34C9.48 -17.34 9.42 -17.34 9.38 -17.33C9.33 -17.32 9.21 -17.31 9.02 -17.3C8.96 -17.3 8.89 -17.29 8.81 -17.29C8.73 -17.28 8.66 -17.27 8.58 -17.25L8.19 -17.25C8.07 -17.25 7.96 -17.23 7.85 -17.2C7.82 -17.23 7.78 -17.25 7.73 -17.24C7.69 -17.23 7.64 -17.23 7.59 -17.23L6.94 -17.23C6.89 -17.23 6.85 -17.23 6.81 -17.24C6.77 -17.25 6.73 -17.25 6.68 -17.25C6.62 -17.25 6.56 -17.24 6.5 -17.23C6.45 -17.21 6.32 -17.2 6.12 -17.18C6.1 -17.18 6.09 -17.18 6.07 -17.17C6.05 -17.16 5.98 -17.16 5.84 -17.18L5.53 -17.18L5.13 -17.2C5.09 -17.22 5.04 -17.23 4.98 -17.25C4.93 -17.27 4.8 -17.27 4.62 -17.27C4.54 -17.29 4.47 -17.3 4.42 -17.3L4.22 -17.3C4.06 -17.33 3.94 -17.34 3.84 -17.34C3.8 -17.34 3.75 -17.34 3.7 -17.33C3.66 -17.32 3.61 -17.32 3.56 -17.32C3.52 -17.32 3.48 -17.32 3.45 -17.33C3.41 -17.34 3.32 -17.34 3.16 -17.32C3.1 -17.32 3.05 -17.32 3 -17.31C2.95 -17.3 2.84 -17.31 2.67 -17.34C2.63 -17.34 2.57 -17.35 2.52 -17.36C2.46 -17.36 2.41 -17.37 2.34 -17.37C2.33 -17.37 2.2 -17.34 1.95 -17.3C1.91 -17.28 1.88 -17.26 1.84 -17.24C1.8 -17.21 1.74 -17.22 1.66 -17.25C1.63 -17.27 1.59 -17.26 1.52 -17.23C1.46 -17.2 1.41 -17.18 1.36 -17.18C1.28 -17.12 1.23 -17.04 1.2 -16.96C1.16 -16.87 1.13 -16.79 1.08 -16.71C1.09 -16.57 1.1 -16.44 1.09 -16.31C1.08 -16.19 1.09 -16.09 1.1 -16.01L1.1 -15.75C1.1 -15.52 1.11 -15.28 1.11 -15.05C1.12 -14.81 1.13 -14.59 1.15 -14.37C1.15 -14.29 1.16 -14.17 1.2 -14.02C1.2 -13.98 1.19 -13.95 1.18 -13.92C1.18 -13.89 1.18 -13.78 1.2 -13.59C1.21 -13.41 1.24 -13.18 1.29 -12.91C1.3 -12.84 1.32 -12.76 1.32 -12.68C1.33 -12.6 1.34 -12.52 1.34 -12.42C1.35 -12.34 1.36 -12.26 1.35 -12.16C1.34 -12.07 1.34 -11.98 1.34 -11.88C1.34 -11.84 1.34 -11.79 1.35 -11.74C1.36 -11.7 1.36 -11.65 1.36 -11.6C1.36 -11.57 1.36 -11.52 1.35 -11.45C1.34 -11.38 1.34 -11.31 1.34 -11.25C1.35 -11.22 1.36 -11.2 1.37 -11.19C1.38 -11.18 1.4 -11.11 1.43 -10.97C1.45 -10.86 1.46 -10.75 1.46 -10.65C1.47 -10.55 1.49 -10.44 1.52 -10.31C1.55 -10.16 1.58 -10.05 1.59 -9.98C1.59 -9.92 1.59 -9.87 1.58 -9.82C1.57 -9.77 1.57 -9.72 1.57 -9.66L1.57 -9.5C1.57 -9.45 1.58 -9.39 1.59 -9.33L1.59 -9.02L1.64 -8.84C1.66 -8.77 1.66 -8.71 1.66 -8.65C1.66 -8.6 1.66 -8.55 1.65 -8.51C1.64 -8.46 1.64 -8.41 1.64 -8.37C1.64 -8.32 1.64 -8.28 1.65 -8.24C1.66 -8.2 1.66 -8.15 1.66 -8.09C1.68 -8.04 1.68 -7.99 1.68 -7.95C1.67 -7.9 1.67 -7.8 1.69 -7.66C1.69 -7.55 1.68 -7.46 1.66 -7.39C1.65 -7.32 1.66 -7.17 1.69 -6.94C1.7 -6.81 1.71 -6.67 1.7 -6.52C1.69 -6.36 1.69 -6.21 1.69 -6.07C1.7 -5.99 1.71 -5.92 1.72 -5.86C1.73 -5.8 1.73 -5.66 1.73 -5.46C1.72 -5.37 1.71 -5.27 1.72 -5.17C1.73 -5.07 1.71 -4.89 1.66 -4.64C1.65 -4.44 1.64 -4.25 1.65 -4.08C1.66 -3.91 1.66 -3.7 1.66 -3.47C1.65 -3.41 1.64 -3.34 1.64 -3.27C1.64 -3.2 1.63 -3.09 1.59 -2.93C1.63 -2.73 1.62 -2.42 1.57 -2.02L1.57 -1.77C1.57 -1.68 1.56 -1.53 1.55 -1.31C1.55 -1.28 1.55 -1.26 1.56 -1.24C1.57 -1.23 1.55 -1.15 1.52 -1.01C1.49 -0.95 1.48 -0.88 1.48 -0.82C1.48 -0.76 1.49 -0.66 1.52 -0.54L1.59 -0.26C1.63 -0.18 1.66 -0.12 1.69 -0.09C1.72 -0.06 1.77 -0.02 1.83 0.02C1.89 0.09 1.99 0.15 2.13 0.21C2.18 0.23 2.24 0.23 2.31 0.23C2.38 0.23 2.48 0.23 2.6 0.21C2.65 0.23 2.69 0.24 2.73 0.26C2.77 0.27 2.83 0.29 2.91 0.3C2.98 0.34 3.06 0.34 3.13 0.33C3.2 0.31 3.27 0.3 3.35 0.3C3.4 0.29 3.45 0.29 3.5 0.29C3.56 0.3 3.65 0.28 3.77 0.23C3.8 0.25 3.85 0.25 3.9 0.25C3.96 0.24 4.01 0.23 4.05 0.23L4.21 0.23C4.26 0.23 4.34 0.22 4.43 0.19C4.49 0.16 4.54 0.14 4.58 0.14C4.62 0.14 4.66 0.13 4.69 0.12C4.77 0.15 4.84 0.15 4.91 0.13C4.98 0.11 5.11 0.09 5.3 0.09C5.33 0.09 5.36 0.09 5.38 0.08C5.4 0.07 5.5 0.09 5.67 0.12C5.7 0.13 5.73 0.14 5.77 0.13C5.8 0.12 5.88 0.12 6.02 0.12C6.05 0.12 6.09 0.12 6.12 0.13C6.15 0.14 6.24 0.16 6.4 0.19C6.43 0.19 6.46 0.18 6.48 0.18C6.5 0.17 6.58 0.17 6.7 0.19C6.78 0.19 6.86 0.2 6.94 0.22C7.02 0.25 7.09 0.26 7.17 0.26C7.2 0.26 7.23 0.25 7.24 0.25C7.26 0.24 7.36 0.23 7.55 0.23C7.58 0.23 7.6 0.23 7.62 0.22C7.63 0.21 7.73 0.21 7.9 0.21C7.96 0.18 8.02 0.17 8.09 0.18C8.15 0.18 8.28 0.2 8.48 0.23C8.56 0.2 8.64 0.19 8.72 0.2C8.8 0.21 8.92 0.23 9.09 0.28L9.38 0.3C9.44 0.32 9.55 0.33 9.7 0.33C9.77 0.34 9.84 0.36 9.91 0.36C9.99 0.37 10.13 0.36 10.34 0.33C10.35 0.33 10.39 0.32 10.45 0.32C10.52 0.31 10.59 0.31 10.69 0.33C10.72 0.33 10.78 0.32 10.88 0.32C10.97 0.31 11.1 0.29 11.27 0.26C11.3 0.24 11.34 0.24 11.37 0.25C11.4 0.25 11.48 0.23 11.63 0.19C11.7 0.16 11.8 0.12 11.93 0.09C11.98 0.08 12.04 0.06 12.12 0.04C12.2 0.01 12.31 -0.02 12.47 -0.05C12.5 -0.08 12.53 -0.09 12.55 -0.09C12.57 -0.09 12.66 -0.12 12.8 -0.16C12.86 -0.2 12.92 -0.23 12.97 -0.28C13.03 -0.33 13.13 -0.39 13.27 -0.47C13.3 -0.53 13.39 -0.61 13.55 -0.7C13.56 -0.72 13.57 -0.73 13.58 -0.73C13.59 -0.73 13.66 -0.78 13.78 -0.89C13.83 -0.92 13.88 -0.96 13.93 -1C13.99 -1.04 14.09 -1.11 14.23 -1.22L14.41 -1.41C14.52 -1.47 14.59 -1.53 14.63 -1.59C14.66 -1.61 14.68 -1.62 14.68 -1.64C14.69 -1.66 14.75 -1.7 14.86 -1.76L15.02 -1.97L15.21 -2.16C15.23 -2.17 15.24 -2.19 15.25 -2.21C15.25 -2.24 15.29 -2.31 15.35 -2.44C15.41 -2.47 15.47 -2.52 15.52 -2.59C15.56 -2.66 15.6 -2.73 15.63 -2.79C15.68 -2.87 15.72 -2.94 15.76 -3C15.8 -3.06 15.84 -3.12 15.89 -3.16C15.89 -3.21 15.91 -3.25 15.94 -3.28C15.97 -3.31 15.99 -3.35 16.01 -3.4C16.02 -3.48 16.04 -3.54 16.07 -3.6C16.09 -3.65 16.11 -3.79 16.13 -4.01C16.13 -4.05 16.13 -4.09 16.15 -4.12C16.16 -4.16 16.14 -4.25 16.08 -4.41C16.05 -4.47 16.02 -4.52 16.01 -4.56C15.99 -4.6 15.95 -4.66 15.89 -4.76C15.81 -4.93 15.73 -5.08 15.63 -5.2C15.62 -5.25 15.55 -5.39 15.42 -5.62C15.38 -5.64 15.34 -5.67 15.3 -5.72C15.27 -5.77 15.24 -5.8 15.21 -5.84C15.12 -5.93 15.05 -6.01 15 -6.07C14.98 -6.09 14.97 -6.1 14.96 -6.12C14.96 -6.13 14.9 -6.21 14.79 -6.35C14.71 -6.43 14.66 -6.5 14.63 -6.56C14.59 -6.58 14.57 -6.59 14.57 -6.61C14.56 -6.62 14.49 -6.7 14.37 -6.82C14.3 -6.87 14.2 -6.95 14.06 -7.05ZM9.82 -11.67C9.84 -11.64 9.86 -11.61 9.89 -11.59C9.92 -11.57 9.92 -11.45 9.89 -11.23C9.83 -11.2 9.77 -11.13 9.7 -11.04C9.67 -11.01 9.64 -10.98 9.62 -10.95C9.6 -10.91 9.51 -10.86 9.35 -10.78C9.32 -10.75 9.29 -10.71 9.27 -10.68C9.25 -10.64 9.22 -10.59 9.19 -10.55C9.13 -10.52 9.07 -10.48 9.04 -10.43C9 -10.38 8.91 -10.29 8.79 -10.15C8.7 -10.13 8.63 -10.09 8.58 -10.03C8.53 -9.97 8.47 -9.91 8.39 -9.87C8.33 -9.84 8.25 -9.77 8.16 -9.66C8.12 -9.62 8.09 -9.6 8.05 -9.59C8.01 -9.57 7.93 -9.49 7.8 -9.35C7.73 -9.34 7.66 -9.31 7.61 -9.27C7.55 -9.23 7.46 -9.19 7.34 -9.14C7.32 -9.13 7.32 -9.11 7.32 -9.11C7.33 -9.1 7.25 -9.09 7.08 -9.09C7 -9.23 6.95 -9.39 6.94 -9.56C6.92 -9.66 6.91 -9.76 6.9 -9.88C6.89 -10 6.91 -10.18 6.94 -10.43C6.94 -10.51 6.95 -10.6 6.96 -10.71C6.98 -10.82 6.97 -10.99 6.94 -11.23C6.92 -11.45 6.92 -11.68 6.94 -11.93C6.95 -12.18 6.94 -12.46 6.89 -12.77L6.89 -12.88C6.89 -12.92 6.88 -12.97 6.87 -13.03C6.87 -13.12 6.88 -13.23 6.91 -13.36C6.91 -13.39 6.91 -13.44 6.9 -13.5C6.89 -13.56 6.9 -13.62 6.91 -13.69C6.91 -13.77 6.93 -13.87 6.96 -13.99C6.99 -14.16 7.06 -14.29 7.17 -14.37L7.27 -14.41C7.3 -14.43 7.35 -14.45 7.43 -14.46C7.46 -14.43 7.55 -14.4 7.71 -14.37L7.97 -14.2C8 -14.19 8.02 -14.18 8.03 -14.18C8.04 -14.18 8.11 -14.12 8.25 -13.99C8.31 -13.93 8.38 -13.87 8.45 -13.8C8.52 -13.74 8.6 -13.65 8.7 -13.52C8.71 -13.49 8.8 -13.38 8.95 -13.2C9.02 -13.13 9.08 -13.04 9.14 -12.91C9.17 -12.88 9.19 -12.85 9.2 -12.82C9.21 -12.79 9.27 -12.7 9.38 -12.56C9.38 -12.5 9.42 -12.42 9.52 -12.33C9.52 -12.31 9.56 -12.22 9.66 -12.05C9.69 -12.02 9.7 -11.99 9.7 -11.98C9.7 -11.96 9.74 -11.86 9.82 -11.67ZM7.57 -2.34C7.49 -2.34 7.41 -2.35 7.34 -2.37C7.26 -2.38 7.16 -2.45 7.03 -2.55C7.02 -2.62 7.01 -2.68 7.02 -2.73C7.03 -2.79 7 -2.89 6.94 -3.05C6.94 -3.11 6.94 -3.18 6.95 -3.27C6.96 -3.36 6.95 -3.41 6.91 -3.45C6.93 -3.52 6.94 -3.59 6.94 -3.66L6.94 -3.84L6.94 -4.1L6.91 -4.41C6.88 -4.56 6.87 -4.75 6.88 -4.96C6.89 -5.17 6.88 -5.41 6.87 -5.7C6.87 -5.71 6.87 -5.75 6.88 -5.81C6.89 -5.88 6.88 -5.94 6.87 -6C6.87 -6.03 6.86 -6.07 6.86 -6.12C6.85 -6.16 6.84 -6.21 6.84 -6.26C6.84 -6.3 6.85 -6.36 6.87 -6.41C6.88 -6.46 6.89 -6.53 6.89 -6.61C6.89 -6.62 6.89 -6.64 6.88 -6.64C6.87 -6.65 6.87 -6.74 6.89 -6.91C6.91 -6.96 6.93 -7 6.96 -7.03C6.99 -7.06 7.01 -7.1 7.01 -7.15C7.12 -7.09 7.24 -7.02 7.37 -6.96C7.5 -6.9 7.67 -6.79 7.88 -6.63C7.92 -6.6 7.97 -6.56 8.02 -6.5C8.06 -6.45 8.11 -6.4 8.16 -6.35C8.22 -6.27 8.33 -6.2 8.48 -6.12C8.52 -6.1 8.54 -6.09 8.55 -6.07C8.57 -6.05 8.63 -6.01 8.72 -5.93C8.73 -5.91 8.75 -5.91 8.75 -5.91C8.76 -5.91 8.82 -5.84 8.93 -5.7L9.12 -5.46L9.35 -5.27C9.35 -5.26 9.41 -5.19 9.52 -5.06C9.56 -5.02 9.62 -4.95 9.68 -4.85C9.7 -4.84 9.7 -4.82 9.7 -4.8C9.7 -4.79 9.75 -4.71 9.84 -4.57C9.86 -4.48 9.85 -4.39 9.81 -4.31C9.77 -4.23 9.72 -4.11 9.66 -3.94L9.61 -3.84C9.59 -3.81 9.55 -3.73 9.49 -3.59C9.48 -3.59 9.42 -3.51 9.33 -3.35C9.3 -3.32 9.27 -3.29 9.23 -3.27C9.2 -3.25 9.12 -3.18 8.98 -3.07C8.96 -3.02 8.89 -2.96 8.77 -2.88C8.73 -2.85 8.7 -2.82 8.67 -2.8C8.64 -2.78 8.54 -2.72 8.37 -2.62C8.35 -2.62 8.34 -2.62 8.34 -2.61C8.34 -2.61 8.27 -2.56 8.11 -2.48C8.08 -2.47 8.04 -2.45 8 -2.44C7.96 -2.42 7.91 -2.41 7.83 -2.39C7.73 -2.36 7.65 -2.34 7.57 -2.34Z M25.24 0.07C25.34 0.1 25.43 0.13 25.54 0.16C25.64 0.2 25.73 0.2 25.8 0.19C25.82 0.19 25.91 0.18 26.09 0.16C26.2 0.15 26.3 0.14 26.39 0.15C26.48 0.16 26.63 0.15 26.81 0.12C26.84 0.12 26.94 0.1 27.09 0.07C27.16 0.04 27.27 0.02 27.42 0C27.5 0 27.58 0 27.66 -0.01C27.73 -0.02 27.83 -0.02 27.94 -0.02C27.98 -0.04 28.12 -0.05 28.34 -0.05C28.37 -0.05 28.39 -0.04 28.41 -0.04C28.42 -0.03 28.49 -0.03 28.62 -0.05C28.63 -0.05 28.64 -0.04 28.64 -0.04C28.64 -0.03 28.72 -0.02 28.88 -0.02C28.91 -0.04 28.94 -0.05 28.97 -0.06C29 -0.07 29.12 -0.09 29.32 -0.12C29.48 -0.15 29.59 -0.17 29.65 -0.19C29.71 -0.2 29.75 -0.21 29.77 -0.22C29.78 -0.23 29.86 -0.29 30 -0.4C30 -0.45 30.02 -0.55 30.07 -0.73C30.1 -0.8 30.12 -0.89 30.14 -0.98C30.16 -1.08 30.16 -1.17 30.16 -1.27L30.16 -1.38C30.16 -1.43 30.13 -1.52 30.07 -1.66C30.04 -1.7 30.02 -1.73 30.02 -1.77C30.02 -1.81 30.02 -1.86 30 -1.92C29.97 -2.02 29.95 -2.12 29.93 -2.23C29.91 -2.34 29.89 -2.48 29.86 -2.65C29.84 -2.74 29.84 -2.84 29.84 -2.94C29.84 -3.04 29.82 -3.13 29.79 -3.21L29.77 -3.61C29.75 -3.66 29.73 -3.69 29.72 -3.71C29.7 -3.74 29.7 -3.8 29.7 -3.89C29.68 -3.94 29.66 -3.98 29.64 -4.03C29.61 -4.08 29.61 -4.16 29.63 -4.27C29.63 -4.33 29.61 -4.38 29.59 -4.42C29.57 -4.46 29.55 -4.51 29.53 -4.57C29.53 -4.59 29.54 -4.61 29.54 -4.63C29.55 -4.65 29.54 -4.72 29.51 -4.83C29.49 -4.87 29.49 -4.92 29.5 -4.97C29.5 -5.02 29.48 -5.14 29.41 -5.34C29.4 -5.37 29.39 -5.41 29.39 -5.45C29.39 -5.49 29.37 -5.55 29.34 -5.62C29.33 -5.66 29.31 -5.74 29.3 -5.88C29.25 -5.96 29.2 -6.11 29.13 -6.33C29.13 -6.45 29.12 -6.57 29.1 -6.68C29.07 -6.79 29.05 -6.91 29.02 -7.03L28.95 -7.45C28.91 -7.55 28.89 -7.68 28.88 -7.85C28.86 -7.93 28.84 -8.02 28.82 -8.13C28.79 -8.24 28.77 -8.34 28.73 -8.44C28.7 -8.59 28.67 -8.74 28.63 -8.87C28.59 -9 28.52 -9.2 28.43 -9.45C28.4 -9.52 28.38 -9.59 28.37 -9.64C28.36 -9.7 28.34 -9.76 28.31 -9.82C28.28 -9.9 28.25 -9.98 28.22 -10.07C28.19 -10.15 28.14 -10.31 28.08 -10.55C28.06 -10.58 28.04 -10.61 28.02 -10.65C28 -10.69 27.98 -10.75 27.96 -10.83C27.95 -10.86 27.94 -10.89 27.95 -10.93C27.96 -10.97 27.94 -11.03 27.89 -11.11C27.86 -11.17 27.84 -11.23 27.82 -11.27L27.77 -11.41C27.71 -11.43 27.68 -11.46 27.67 -11.51C27.66 -11.55 27.63 -11.64 27.59 -11.77C27.52 -11.78 27.48 -11.81 27.47 -11.86C27.45 -11.91 27.37 -11.98 27.21 -12.07C27.18 -12.1 27.15 -12.13 27.12 -12.15C27.09 -12.18 27.03 -12.22 26.95 -12.28C26.89 -12.34 26.8 -12.44 26.7 -12.56C26.66 -12.58 26.58 -12.64 26.44 -12.75L26.23 -12.96C26.2 -12.99 26.16 -13.01 26.11 -13.02C26.06 -13.03 25.99 -13.08 25.9 -13.17C25.88 -13.19 25.87 -13.19 25.86 -13.18C25.86 -13.18 25.79 -13.22 25.66 -13.31C25.6 -13.33 25.45 -13.38 25.2 -13.45C25.07 -13.52 24.84 -13.55 24.52 -13.55C24.48 -13.55 24.46 -13.55 24.43 -13.57C24.41 -13.59 24.34 -13.59 24.23 -13.57C24.2 -13.57 24.17 -13.58 24.13 -13.59C24.09 -13.61 24.02 -13.62 23.91 -13.62L23.65 -13.59C23.62 -13.59 23.59 -13.6 23.58 -13.61C23.56 -13.61 23.47 -13.61 23.3 -13.59L22.99 -13.59C22.96 -13.59 22.93 -13.6 22.9 -13.62C22.87 -13.63 22.8 -13.63 22.69 -13.62C22.56 -13.6 22.43 -13.59 22.3 -13.59L21.98 -13.59C21.97 -13.59 21.91 -13.59 21.82 -13.58C21.73 -13.57 21.66 -13.58 21.63 -13.59C21.6 -13.59 21.57 -13.6 21.55 -13.61C21.53 -13.61 21.42 -13.6 21.23 -13.57L20.98 -13.57L20.63 -13.57C20.52 -13.57 20.41 -13.58 20.32 -13.59C20.26 -13.59 20.21 -13.6 20.18 -13.61C20.15 -13.61 20.08 -13.6 19.97 -13.57C19.89 -13.62 19.82 -13.63 19.77 -13.62C19.71 -13.6 19.6 -13.6 19.43 -13.62C19.4 -13.6 19.37 -13.59 19.35 -13.57C19.32 -13.55 19.27 -13.55 19.17 -13.55C19.08 -13.53 18.97 -13.5 18.84 -13.45C18.8 -13.42 18.75 -13.39 18.71 -13.37C18.68 -13.35 18.63 -13.32 18.59 -13.29C18.55 -13.21 18.47 -13.09 18.33 -12.94L18.23 -12.66C18.23 -12.59 18.21 -12.48 18.16 -12.33C18.15 -12.23 18.12 -12.13 18.07 -12.01C18.02 -11.89 17.98 -11.73 17.95 -11.53C17.95 -11.33 17.92 -11.15 17.86 -10.99C17.83 -10.95 17.81 -10.9 17.81 -10.86C17.81 -10.82 17.8 -10.78 17.79 -10.73C17.76 -10.66 17.73 -10.57 17.7 -10.49C17.66 -10.4 17.63 -10.27 17.6 -10.08C17.59 -10.05 17.57 -10.03 17.55 -10.02C17.54 -10.01 17.52 -9.93 17.48 -9.77C17.48 -9.74 17.48 -9.71 17.47 -9.68C17.46 -9.65 17.45 -9.55 17.41 -9.4C17.41 -9.37 17.41 -9.34 17.4 -9.32C17.39 -9.29 17.43 -9.2 17.51 -9.02C17.54 -8.99 17.56 -8.96 17.58 -8.94C17.59 -8.92 17.7 -8.9 17.88 -8.88C18.01 -8.9 18.14 -8.9 18.27 -8.89C18.4 -8.89 18.59 -8.88 18.82 -8.88C18.88 -8.88 18.94 -8.88 19 -8.87C19.05 -8.86 19.1 -8.87 19.15 -8.88C19.27 -8.88 19.39 -8.89 19.5 -8.92C19.61 -8.94 19.71 -8.95 19.8 -8.95C19.85 -8.95 19.91 -8.95 19.97 -8.94C20.03 -8.93 20.09 -8.94 20.13 -8.95C20.23 -8.95 20.32 -8.94 20.41 -8.91L20.81 -8.93C20.86 -8.93 20.91 -8.93 20.96 -8.94C21.02 -8.95 21.15 -8.94 21.35 -8.91C21.41 -8.89 21.47 -8.89 21.53 -8.89C21.58 -8.9 21.63 -8.91 21.68 -8.91L21.87 -8.91L22.17 -8.91C22.27 -8.91 22.35 -8.91 22.42 -8.92C22.49 -8.93 22.55 -8.91 22.62 -8.86C22.62 -8.83 22.54 -8.75 22.38 -8.62C22.34 -8.58 22.23 -8.52 22.05 -8.44C21.95 -8.41 21.84 -8.36 21.75 -8.31C21.66 -8.25 21.53 -8.2 21.38 -8.13C21.34 -8.07 21.24 -8.01 21.07 -7.95C21.05 -7.93 21.04 -7.92 21.04 -7.92C21.03 -7.92 20.95 -7.87 20.81 -7.76C20.75 -7.73 20.64 -7.66 20.48 -7.57C20.45 -7.55 20.43 -7.53 20.4 -7.5C20.38 -7.47 20.3 -7.41 20.18 -7.34C20.16 -7.32 20.08 -7.27 19.92 -7.17C19.89 -7.16 19.87 -7.15 19.85 -7.15C19.84 -7.15 19.76 -7.1 19.62 -7.01C19.59 -6.98 19.56 -6.95 19.54 -6.91C19.51 -6.88 19.42 -6.8 19.27 -6.68C19.25 -6.66 19.24 -6.66 19.23 -6.66C19.22 -6.66 19.16 -6.59 19.03 -6.45C18.92 -6.34 18.8 -6.21 18.68 -6.07C18.62 -6.01 18.56 -5.95 18.5 -5.88C18.45 -5.82 18.39 -5.77 18.33 -5.72C18.23 -5.62 18.17 -5.55 18.14 -5.48L18.06 -5.4C18.04 -5.38 17.99 -5.31 17.93 -5.2C17.9 -5.16 17.84 -5.08 17.77 -4.97C17.75 -4.97 17.71 -4.89 17.65 -4.73C17.57 -4.7 17.52 -4.66 17.5 -4.59C17.47 -4.53 17.44 -4.46 17.39 -4.38C17.41 -4.3 17.41 -4.24 17.39 -4.2C17.37 -4.15 17.39 -4.07 17.44 -3.96C17.48 -3.85 17.52 -3.73 17.55 -3.61C17.55 -3.52 17.56 -3.42 17.57 -3.33C17.57 -3.23 17.61 -3.16 17.67 -3.12C17.7 -3.05 17.76 -2.97 17.84 -2.86C17.87 -2.78 17.92 -2.7 18 -2.62C18.02 -2.61 18.12 -2.51 18.33 -2.32C18.33 -2.29 18.41 -2.18 18.56 -1.99C18.62 -1.9 18.72 -1.77 18.84 -1.59L19.03 -1.38L19.24 -1.17L19.3 -1.11L19.48 -0.94C19.54 -0.89 19.6 -0.86 19.66 -0.83C19.73 -0.81 19.77 -0.76 19.8 -0.68C19.87 -0.66 19.95 -0.63 20.04 -0.56C20.05 -0.55 20.07 -0.53 20.07 -0.5C20.08 -0.48 20.13 -0.44 20.23 -0.37C20.3 -0.37 20.36 -0.36 20.4 -0.34C20.44 -0.32 20.54 -0.27 20.7 -0.21C20.71 -0.21 20.73 -0.21 20.74 -0.2C20.76 -0.19 20.83 -0.17 20.95 -0.14L21.16 0.02C21.21 0.02 21.26 0.03 21.3 0.05C21.35 0.06 21.45 0.09 21.59 0.12C21.62 0.15 21.73 0.2 21.91 0.26L22.24 0.26C22.37 0.26 22.45 0.25 22.5 0.23C22.53 0.2 22.57 0.18 22.62 0.15C22.66 0.13 22.7 0.1 22.73 0.07C22.77 0.07 22.85 -0.01 22.99 -0.16C23.05 -0.2 23.14 -0.27 23.25 -0.4C23.3 -0.43 23.33 -0.46 23.34 -0.48C23.36 -0.5 23.41 -0.56 23.51 -0.66C23.57 -0.69 23.64 -0.75 23.72 -0.84L23.91 -1.05C23.97 -1.12 24.05 -1.23 24.16 -1.38C24.2 -1.41 24.22 -1.43 24.23 -1.43C24.25 -1.43 24.3 -1.48 24.4 -1.57C24.41 -1.6 24.48 -1.66 24.61 -1.73C24.59 -1.73 24.65 -1.81 24.77 -1.97L24.91 -1.73C24.93 -1.7 24.94 -1.67 24.94 -1.63C24.94 -1.59 24.93 -1.52 24.91 -1.43C24.95 -1.37 24.98 -1.25 25.01 -1.08C25.01 -1.03 25.02 -0.98 25.03 -0.93C25.05 -0.87 25.05 -0.81 25.05 -0.75L25.03 -0.45C25.05 -0.37 25.07 -0.31 25.09 -0.27C25.11 -0.23 25.16 -0.12 25.24 0.07ZM24.84 -3.26L24.84 -3.07C24.77 -3.04 24.67 -3.04 24.55 -3.06C24.43 -3.08 24.29 -3.14 24.12 -3.23C24.09 -3.25 24.04 -3.26 23.99 -3.27C23.93 -3.28 23.85 -3.3 23.74 -3.33C23.68 -3.34 23.63 -3.35 23.59 -3.35C23.55 -3.35 23.46 -3.38 23.32 -3.45C23.3 -3.45 23.29 -3.46 23.27 -3.48C23.26 -3.5 23.2 -3.55 23.11 -3.61C23.08 -3.63 23.05 -3.63 23.02 -3.63C22.98 -3.63 22.93 -3.66 22.85 -3.7C22.8 -3.7 22.73 -3.77 22.62 -3.89C22.65 -3.97 22.66 -4.03 22.66 -4.07C22.66 -4.11 22.65 -4.16 22.62 -4.22C22.65 -4.27 22.68 -4.31 22.72 -4.36C22.76 -4.41 22.8 -4.47 22.83 -4.55C22.88 -4.58 22.91 -4.61 22.95 -4.65C22.98 -4.69 23.07 -4.77 23.23 -4.87C23.24 -4.89 23.25 -4.89 23.25 -4.89C23.25 -4.88 23.33 -4.94 23.48 -5.06L23.55 -5.13C23.57 -5.15 23.62 -5.19 23.7 -5.25C23.73 -5.28 23.81 -5.34 23.95 -5.41C23.97 -5.43 24.05 -5.48 24.19 -5.58C24.2 -5.61 24.23 -5.63 24.26 -5.65C24.29 -5.66 24.36 -5.62 24.47 -5.53C24.48 -5.5 24.5 -5.46 24.52 -5.43C24.53 -5.39 24.55 -5.3 24.59 -5.18C24.62 -5.09 24.63 -4.99 24.63 -4.9C24.63 -4.8 24.66 -4.62 24.7 -4.36C24.72 -4.33 24.72 -4.29 24.71 -4.24C24.71 -4.2 24.72 -4.1 24.75 -3.96C24.77 -3.91 24.78 -3.84 24.8 -3.74C24.81 -3.64 24.83 -3.48 24.84 -3.26Z M36.09 -18.12C36.03 -18.09 36 -18.09 36.01 -18.14C36.02 -18.19 35.96 -18.24 35.84 -18.3C35.8 -18.34 35.77 -18.37 35.73 -18.4C35.69 -18.43 35.61 -18.47 35.48 -18.52C35.44 -18.53 35.4 -18.54 35.37 -18.53C35.34 -18.52 35.28 -18.52 35.2 -18.54L34.8 -18.54L34.56 -18.54C34.47 -18.54 34.33 -18.55 34.13 -18.56C34.09 -18.58 34.07 -18.58 34.05 -18.57C34.04 -18.57 33.97 -18.56 33.84 -18.56C33.81 -18.56 33.78 -18.57 33.74 -18.59C33.7 -18.6 33.59 -18.59 33.4 -18.56C33.37 -18.56 33.34 -18.57 33.32 -18.57C33.29 -18.58 33.2 -18.57 33.02 -18.54C32.98 -18.54 32.93 -18.54 32.88 -18.55C32.84 -18.56 32.79 -18.56 32.74 -18.56C32.68 -18.56 32.63 -18.55 32.58 -18.53C32.53 -18.5 32.48 -18.51 32.41 -18.54C32.35 -18.48 32.28 -18.45 32.2 -18.45C32.13 -18.45 32.05 -18.45 31.97 -18.47C31.92 -18.47 31.81 -18.5 31.64 -18.56C31.59 -18.58 31.48 -18.52 31.29 -18.37C31.26 -18.34 31.23 -18.31 31.22 -18.27C31.2 -18.23 31.18 -18.13 31.15 -17.98C31.12 -17.91 31.11 -17.86 31.13 -17.82C31.14 -17.79 31.15 -17.73 31.15 -17.67L31.15 -17.32C31.12 -17.21 31.11 -17.11 31.13 -17.02C31.14 -16.92 31.17 -16.77 31.22 -16.55C31.22 -16.48 31.22 -16.43 31.23 -16.39C31.24 -16.36 31.24 -16.32 31.24 -16.29C31.26 -16.23 31.27 -16.17 31.28 -16.11C31.29 -16.06 31.29 -15.99 31.29 -15.91C31.29 -15.9 31.31 -15.8 31.36 -15.63L31.36 -15.35C31.36 -15.27 31.37 -15.15 31.38 -14.98L31.45 -14.7C31.44 -14.68 31.42 -14.57 31.41 -14.37C31.41 -14.32 31.41 -14.27 31.43 -14.21C31.45 -14.16 31.45 -14.11 31.45 -14.06C31.45 -14.03 31.45 -14 31.43 -13.97C31.41 -13.94 31.41 -13.86 31.43 -13.73L31.43 -13.48C31.41 -13.32 31.41 -13.16 31.42 -12.98C31.43 -12.81 31.42 -12.66 31.41 -12.52L31.38 -12.26C31.38 -12.2 31.39 -12.13 31.39 -12.07C31.4 -12.01 31.4 -11.95 31.38 -11.91L31.38 -11.55L31.36 -11.3C31.38 -11.2 31.38 -11.1 31.36 -10.99C31.34 -10.88 31.34 -10.77 31.34 -10.64L31.34 -9.77C31.34 -9.71 31.34 -9.64 31.35 -9.57C31.36 -9.5 31.36 -9.43 31.36 -9.35C31.36 -9.29 31.36 -9.23 31.35 -9.18C31.34 -9.12 31.34 -9.06 31.34 -9C31.34 -8.92 31.35 -8.83 31.38 -8.72C31.41 -8.59 31.42 -8.47 31.41 -8.36C31.39 -8.24 31.38 -8.12 31.38 -7.99C31.37 -7.84 31.37 -7.67 31.39 -7.5C31.42 -7.33 31.43 -7.16 31.43 -6.98L31.43 -6.73C31.43 -6.65 31.44 -6.58 31.45 -6.52C31.47 -6.45 31.48 -6.38 31.48 -6.3C31.46 -6.21 31.46 -6.09 31.46 -5.94C31.47 -5.79 31.48 -5.66 31.48 -5.53C31.48 -5.45 31.47 -5.39 31.46 -5.33C31.46 -5.28 31.46 -5.14 31.48 -4.92C31.49 -4.84 31.5 -4.76 31.49 -4.66C31.48 -4.57 31.48 -4.4 31.48 -4.15C31.48 -4.1 31.48 -4.05 31.49 -4.01C31.5 -3.96 31.5 -3.92 31.5 -3.89L31.48 -3.35C31.46 -3.32 31.46 -3.3 31.46 -3.29C31.47 -3.29 31.48 -3.22 31.48 -3.09C31.45 -3.02 31.42 -2.9 31.41 -2.74C31.39 -2.7 31.39 -2.64 31.39 -2.57C31.4 -2.5 31.4 -2.43 31.38 -2.37L31.36 -2.11C31.36 -1.95 31.35 -1.84 31.34 -1.76C31.34 -1.74 31.33 -1.73 31.32 -1.72C31.32 -1.71 31.3 -1.63 31.29 -1.45C31.29 -1.41 31.28 -1.35 31.25 -1.29C31.23 -1.23 31.22 -1.17 31.22 -1.12C31.22 -1.09 31.22 -1.07 31.23 -1.05C31.24 -1.04 31.23 -0.98 31.22 -0.87C31.23 -0.85 31.23 -0.77 31.2 -0.61C31.2 -0.59 31.2 -0.59 31.21 -0.59C31.21 -0.59 31.22 -0.49 31.22 -0.3C31.25 -0.27 31.27 -0.24 31.27 -0.21C31.27 -0.18 31.34 -0.1 31.48 0.02C31.51 0.02 31.54 0.03 31.57 0.05C31.6 0.06 31.66 0.07 31.73 0.07C31.77 0.09 31.79 0.11 31.79 0.13C31.8 0.15 31.87 0.15 31.99 0.12C32.07 0.16 32.15 0.18 32.24 0.15C32.32 0.13 32.41 0.12 32.48 0.12C32.53 0.12 32.57 0.12 32.61 0.14C32.65 0.16 32.7 0.16 32.74 0.16C32.8 0.16 32.86 0.16 32.91 0.14C32.95 0.12 33 0.12 33.05 0.12C33.11 0.12 33.16 0.12 33.21 0.14C33.26 0.16 33.34 0.14 33.47 0.09C33.52 0.12 33.57 0.14 33.63 0.13C33.7 0.12 33.81 0.13 33.98 0.16L34.34 0.16C34.4 0.16 34.46 0.16 34.51 0.15C34.57 0.14 34.62 0.14 34.69 0.14C34.73 0.14 34.78 0.14 34.82 0.15C34.86 0.16 34.9 0.16 34.95 0.16C34.98 0.18 35 0.18 35.03 0.18C35.05 0.17 35.15 0.16 35.32 0.16C35.38 0.16 35.44 0.15 35.5 0.13C35.55 0.11 35.67 0.05 35.86 -0.05C35.92 -0.05 35.96 -0.06 35.99 -0.09C36.01 -0.12 36.05 -0.16 36.09 -0.19C36.09 -0.22 36.09 -0.26 36.07 -0.3C36.05 -0.35 36.05 -0.44 36.05 -0.56C36.05 -0.58 36.05 -0.59 36.06 -0.61C36.07 -0.63 36.05 -0.7 36.02 -0.82C36.02 -0.91 36.03 -0.99 36.04 -1.04C36.04 -1.1 36.04 -1.16 36.02 -1.24C36.02 -1.32 36.02 -1.39 36.01 -1.46C36 -1.54 35.98 -1.68 35.95 -1.9C35.95 -1.93 35.96 -1.96 35.96 -1.98C35.97 -2 35.97 -2.1 35.95 -2.27C35.95 -2.3 35.96 -2.32 35.98 -2.32C35.99 -2.32 35.99 -2.41 35.98 -2.6L35.98 -2.84C35.98 -2.95 35.96 -3.09 35.93 -3.26C35.93 -3.29 35.93 -3.31 35.94 -3.33C35.95 -3.34 35.95 -3.44 35.93 -3.61C35.95 -3.64 35.95 -3.7 35.93 -3.79C35.91 -3.87 35.91 -3.94 35.93 -3.98C35.96 -4.05 35.97 -4.13 35.95 -4.24C35.95 -4.32 35.96 -4.39 35.96 -4.46C35.97 -4.54 36.05 -4.65 36.21 -4.8C36.27 -4.77 36.34 -4.75 36.4 -4.73C36.46 -4.72 36.54 -4.67 36.63 -4.59C36.68 -4.56 36.71 -4.54 36.74 -4.54C36.76 -4.53 36.8 -4.48 36.87 -4.38C36.95 -4.32 37 -4.25 37.03 -4.17C37.06 -4.09 37.12 -4.03 37.2 -3.98C37.2 -3.91 37.21 -3.85 37.25 -3.82C37.29 -3.79 37.34 -3.73 37.41 -3.63C37.42 -3.62 37.43 -3.6 37.43 -3.59C37.43 -3.57 37.48 -3.5 37.59 -3.37C37.61 -3.36 37.62 -3.34 37.63 -3.33C37.64 -3.31 37.71 -3.24 37.85 -3.12C37.85 -3.1 37.91 -3.02 38.02 -2.86C38.05 -2.83 38.07 -2.79 38.1 -2.75L38.27 -2.46C38.3 -2.43 38.32 -2.4 38.33 -2.38C38.34 -2.36 38.38 -2.27 38.46 -2.13C38.49 -2.1 38.52 -2.07 38.53 -2.05C38.55 -2.03 38.6 -1.96 38.7 -1.85C38.71 -1.84 38.71 -1.82 38.71 -1.8C38.7 -1.79 38.76 -1.71 38.88 -1.57C38.91 -1.54 38.93 -1.51 38.94 -1.49C38.95 -1.46 38.99 -1.41 39.07 -1.34C39.13 -1.24 39.23 -1.08 39.38 -0.84C39.39 -0.83 39.4 -0.81 39.4 -0.8C39.4 -0.78 39.45 -0.7 39.54 -0.54C39.57 -0.51 39.6 -0.47 39.62 -0.42C39.64 -0.37 39.67 -0.34 39.7 -0.3C39.73 -0.26 39.77 -0.21 39.82 -0.16C39.87 -0.12 39.94 -0.04 40.03 0.07C40.06 0.13 40.15 0.21 40.29 0.3C40.3 0.3 40.32 0.3 40.32 0.29C40.33 0.29 40.42 0.29 40.59 0.3C40.67 0.29 40.74 0.27 40.79 0.23C40.85 0.2 40.98 0.14 41.2 0.05C41.23 0.03 41.26 0.02 41.29 0C41.31 -0.02 41.38 -0.07 41.51 -0.16C41.52 -0.18 41.6 -0.23 41.74 -0.3C41.77 -0.34 41.8 -0.38 41.82 -0.45C41.85 -0.51 41.89 -0.59 41.95 -0.68C42.05 -0.8 42.13 -0.89 42.19 -0.94C42.22 -0.98 42.25 -1.03 42.29 -1.07C42.33 -1.11 42.41 -1.2 42.52 -1.36C42.55 -1.38 42.57 -1.39 42.57 -1.41C42.58 -1.42 42.65 -1.49 42.77 -1.62C42.8 -1.66 42.84 -1.71 42.88 -1.75L42.98 -1.85C43.02 -1.91 43.09 -2 43.2 -2.11C43.23 -2.19 43.27 -2.25 43.31 -2.29C43.36 -2.32 43.41 -2.37 43.45 -2.41C43.45 -2.49 43.45 -2.56 43.44 -2.62C43.43 -2.69 43.44 -2.73 43.45 -2.77C43.47 -2.8 43.47 -2.84 43.46 -2.89C43.46 -2.95 43.43 -3.05 43.38 -3.19C43.35 -3.22 43.32 -3.25 43.29 -3.29C43.26 -3.33 43.21 -3.37 43.15 -3.4C43.13 -3.43 43.06 -3.52 42.94 -3.66C42.92 -3.67 42.84 -3.77 42.68 -3.94C42.65 -3.97 42.62 -4 42.59 -4.02C42.55 -4.04 42.51 -4.09 42.45 -4.17C42.41 -4.2 42.32 -4.27 42.16 -4.36C42.1 -4.39 42.05 -4.44 42 -4.5C41.95 -4.56 41.91 -4.61 41.86 -4.64C41.8 -4.67 41.75 -4.7 41.72 -4.72C41.69 -4.75 41.65 -4.77 41.6 -4.78C41.59 -4.81 41.57 -4.84 41.54 -4.86C41.52 -4.89 41.46 -4.94 41.37 -5.02C41.27 -5.11 41.15 -5.23 40.99 -5.37C40.93 -5.38 40.88 -5.41 40.85 -5.46C40.82 -5.51 40.77 -5.54 40.71 -5.55C40.71 -5.59 40.7 -5.61 40.66 -5.61C40.63 -5.62 40.55 -5.69 40.43 -5.81C40.4 -5.84 40.37 -5.86 40.36 -5.86C40.34 -5.86 40.28 -5.94 40.17 -6.09C40.14 -6.14 40.11 -6.18 40.08 -6.2C40.05 -6.22 40.02 -6.25 39.98 -6.28C39.97 -6.3 39.96 -6.31 39.96 -6.33C39.96 -6.34 39.9 -6.42 39.77 -6.56C39.74 -6.61 39.71 -6.65 39.67 -6.69L39.49 -6.87C39.46 -6.91 39.38 -7.03 39.23 -7.22C39.27 -7.25 39.29 -7.27 39.3 -7.28C39.32 -7.29 39.38 -7.34 39.47 -7.45C39.53 -7.55 39.65 -7.63 39.82 -7.69C39.84 -7.77 39.87 -7.82 39.93 -7.84C39.98 -7.86 40.09 -7.93 40.24 -8.04L40.43 -8.23C40.48 -8.26 40.52 -8.29 40.56 -8.31C40.6 -8.33 40.65 -8.37 40.71 -8.41C40.74 -8.45 40.77 -8.46 40.8 -8.47C40.84 -8.48 40.94 -8.55 41.11 -8.7C41.14 -8.71 41.16 -8.72 41.18 -8.72C41.2 -8.72 41.26 -8.77 41.37 -8.86C41.4 -8.87 41.44 -8.89 41.5 -8.91C41.55 -8.92 41.59 -8.95 41.6 -8.98C41.66 -9.01 41.74 -9.07 41.84 -9.16C41.9 -9.15 41.94 -9.16 41.96 -9.21C41.99 -9.26 42.05 -9.3 42.14 -9.35C42.23 -9.41 42.34 -9.48 42.45 -9.56C42.48 -9.58 42.58 -9.65 42.75 -9.77C42.78 -9.8 42.81 -9.82 42.83 -9.83C42.86 -9.84 42.93 -9.89 43.05 -9.98L43.22 -10.2C43.34 -10.21 43.41 -10.29 43.41 -10.43C43.41 -10.51 43.4 -10.61 43.39 -10.72C43.39 -10.84 43.38 -10.94 43.36 -11.02L43.31 -11.11C43.3 -11.14 43.25 -11.22 43.17 -11.34C43.14 -11.44 43.1 -11.52 43.04 -11.58C42.99 -11.64 42.9 -11.77 42.77 -11.95C42.74 -11.98 42.73 -12.01 42.73 -12.04C42.73 -12.06 42.67 -12.12 42.56 -12.21C42.55 -12.23 42.47 -12.34 42.33 -12.56C42.3 -12.59 42.25 -12.67 42.19 -12.8C42.13 -12.83 42.08 -12.87 42.05 -12.93C42.02 -12.98 41.97 -13.05 41.91 -13.15C41.83 -13.23 41.77 -13.3 41.74 -13.36C41.68 -13.39 41.63 -13.43 41.59 -13.49C41.55 -13.54 41.52 -13.59 41.48 -13.62C41.45 -13.62 41.38 -13.66 41.25 -13.76C41.23 -13.77 41.22 -13.78 41.21 -13.78C41.21 -13.78 41.13 -13.83 40.99 -13.92C40.96 -13.95 40.93 -13.96 40.89 -13.96C40.85 -13.95 40.77 -13.97 40.64 -14.02C40.61 -14.02 40.57 -14.01 40.52 -14C40.48 -14 40.41 -13.97 40.34 -13.92L40.01 -13.71C39.98 -13.66 39.91 -13.58 39.8 -13.45C39.77 -13.42 39.75 -13.41 39.74 -13.41C39.73 -13.41 39.69 -13.36 39.61 -13.27C39.58 -13.25 39.56 -13.23 39.55 -13.22C39.54 -13.2 39.49 -13.13 39.4 -13.01C39.35 -12.96 39.3 -12.92 39.23 -12.88C39.17 -12.84 39.09 -12.74 39 -12.59C39.02 -12.59 38.96 -12.51 38.84 -12.35L38.7 -12.21C38.65 -12.16 38.61 -12.11 38.58 -12.05C38.53 -12.03 38.5 -12.01 38.47 -11.99C38.45 -11.96 38.38 -11.88 38.27 -11.74C38.26 -11.73 38.25 -11.71 38.24 -11.7C38.23 -11.68 38.17 -11.62 38.06 -11.53C38.02 -11.47 37.9 -11.35 37.71 -11.18C37.66 -11.13 37.62 -11.09 37.58 -11.04C37.54 -10.99 37.47 -10.91 37.36 -10.78C37.33 -10.75 37.3 -10.71 37.27 -10.66C37.23 -10.62 37.2 -10.58 37.17 -10.55C37.16 -10.52 37.14 -10.48 37.11 -10.45C37.09 -10.42 37.04 -10.35 36.96 -10.24C36.93 -10.21 36.9 -10.17 36.87 -10.12C36.84 -10.08 36.79 -10.03 36.73 -9.98C36.71 -9.97 36.7 -9.95 36.69 -9.93C36.68 -9.9 36.64 -9.85 36.56 -9.77C36.53 -9.74 36.51 -9.72 36.49 -9.71C36.48 -9.71 36.44 -9.66 36.38 -9.56C36.34 -9.52 36.28 -9.44 36.19 -9.33C36.16 -9.3 36.13 -9.27 36.12 -9.25C36.1 -9.22 36.02 -9.16 35.88 -9.07C35.87 -9.21 35.86 -9.35 35.86 -9.49L35.86 -9.89L35.86 -10.17C35.86 -10.23 35.86 -10.3 35.85 -10.36C35.84 -10.42 35.84 -10.48 35.84 -10.55L35.86 -10.95C35.86 -10.98 35.86 -11 35.85 -11.02C35.84 -11.03 35.84 -11.09 35.84 -11.2C35.87 -11.23 35.87 -11.31 35.86 -11.43C35.84 -11.54 35.84 -11.64 35.84 -11.72C35.84 -11.81 35.84 -11.91 35.85 -12C35.86 -12.09 35.86 -12.19 35.86 -12.28L35.86 -12.59C35.86 -12.68 35.86 -12.77 35.87 -12.87C35.88 -12.96 35.87 -13.09 35.84 -13.24C35.84 -13.29 35.84 -13.34 35.86 -13.41C35.88 -13.47 35.88 -13.55 35.86 -13.64C35.89 -13.77 35.91 -13.87 35.91 -13.95C35.91 -13.99 35.9 -14.04 35.89 -14.09C35.89 -14.13 35.89 -14.18 35.91 -14.23L35.93 -14.72C35.95 -14.75 35.95 -14.77 35.94 -14.79C35.93 -14.8 35.94 -14.88 35.95 -15.02L35.95 -15.28C35.95 -15.31 35.97 -15.43 36 -15.63C36 -15.66 36.01 -15.7 36.02 -15.74C36.04 -15.78 36.05 -15.89 36.07 -16.08L36.07 -16.78C36.07 -16.89 36.07 -17 36.06 -17.11C36.05 -17.22 36.05 -17.39 36.07 -17.62C36.05 -17.7 36.05 -17.79 36.05 -17.88C36.05 -17.98 36.06 -18.05 36.09 -18.12Z M53.13 -3.91L53.13 -3.87C53.07 -3.87 53.01 -3.86 52.96 -3.84C52.9 -3.83 52.78 -3.83 52.59 -3.84C52.52 -3.84 52.44 -3.83 52.36 -3.81C52.28 -3.79 52.2 -3.77 52.13 -3.77C52.08 -3.77 52.02 -3.78 51.95 -3.8C51.88 -3.81 51.75 -3.81 51.56 -3.8C51.5 -3.8 51.41 -3.81 51.28 -3.84C51.22 -3.86 51.16 -3.87 51.12 -3.88C51.07 -3.89 51.01 -3.9 50.93 -3.91C50.82 -3.91 50.73 -3.94 50.67 -3.98C50.63 -4 50.58 -4.02 50.54 -4.04C50.5 -4.07 50.47 -4.09 50.44 -4.1C50.39 -4.13 50.35 -4.15 50.31 -4.15C50.27 -4.15 50.23 -4.17 50.2 -4.22C50.16 -4.25 50.11 -4.27 50.07 -4.29C50.04 -4.3 49.96 -4.36 49.85 -4.45C49.82 -4.47 49.8 -4.58 49.8 -4.78C49.82 -4.83 49.95 -4.9 50.2 -4.99C50.25 -5.02 50.3 -5.04 50.34 -5.04C50.39 -5.04 50.48 -5.08 50.6 -5.16C50.62 -5.17 50.7 -5.21 50.84 -5.27C50.87 -5.3 50.91 -5.32 50.96 -5.32C51.02 -5.32 51.12 -5.36 51.26 -5.44C51.3 -5.45 51.36 -5.47 51.41 -5.48C51.46 -5.5 51.51 -5.52 51.54 -5.55C51.57 -5.55 51.66 -5.6 51.8 -5.7C51.84 -5.73 51.89 -5.74 51.95 -5.73C52 -5.72 52.05 -5.73 52.1 -5.74C52.15 -5.76 52.19 -5.78 52.23 -5.8C52.27 -5.82 52.31 -5.84 52.36 -5.84C52.39 -5.88 52.43 -5.91 52.49 -5.92C52.54 -5.93 52.66 -5.97 52.85 -6.05C52.9 -6.08 52.95 -6.11 53.02 -6.14C53.08 -6.17 53.12 -6.18 53.16 -6.16C53.19 -6.21 53.22 -6.24 53.26 -6.26C53.3 -6.27 53.4 -6.34 53.55 -6.45C53.59 -6.48 53.62 -6.5 53.65 -6.52L53.88 -6.63C53.91 -6.66 53.96 -6.69 54.02 -6.7C54.09 -6.72 54.2 -6.77 54.35 -6.87C54.48 -6.93 54.62 -7.01 54.8 -7.1C54.84 -7.13 54.9 -7.16 54.96 -7.18C55.02 -7.21 55.1 -7.24 55.2 -7.29C55.2 -7.32 55.27 -7.36 55.43 -7.41C55.46 -7.44 55.5 -7.47 55.54 -7.5C55.57 -7.53 55.66 -7.57 55.78 -7.62C55.81 -7.65 55.85 -7.66 55.89 -7.66C55.93 -7.66 56.03 -7.7 56.2 -7.78C56.22 -7.8 56.23 -7.81 56.24 -7.83C56.25 -7.84 56.31 -7.88 56.44 -7.95C56.47 -7.96 56.5 -7.98 56.52 -8.02C56.54 -8.05 56.63 -8.13 56.77 -8.27C56.78 -8.3 56.79 -8.35 56.78 -8.4C56.77 -8.46 56.78 -8.58 56.81 -8.77C56.81 -8.81 56.8 -8.86 56.79 -8.89C56.77 -8.93 56.77 -8.98 56.77 -9.02C56.77 -9.12 56.75 -9.23 56.72 -9.35L56.65 -9.61C56.63 -9.64 56.63 -9.66 56.64 -9.66C56.64 -9.66 56.64 -9.73 56.63 -9.87C56.61 -9.91 56.59 -9.96 56.58 -10C56.56 -10.04 56.55 -10.08 56.55 -10.12L56.51 -10.41C56.48 -10.47 56.45 -10.52 56.44 -10.56C56.42 -10.6 56.4 -10.64 56.37 -10.69C56.34 -10.77 56.31 -10.86 56.3 -10.96C56.28 -11.06 56.26 -11.14 56.23 -11.2C56.2 -11.23 56.17 -11.27 56.14 -11.32C56.12 -11.37 56.12 -11.41 56.13 -11.46C56.1 -11.51 56.08 -11.55 56.06 -11.6C56.05 -11.65 56.02 -11.7 55.99 -11.74C55.95 -11.79 55.89 -11.87 55.83 -11.98C55.81 -11.99 55.74 -12.1 55.62 -12.3C55.6 -12.34 55.59 -12.36 55.59 -12.39C55.59 -12.41 55.53 -12.48 55.41 -12.61C55.37 -12.66 55.34 -12.7 55.3 -12.74L55.15 -12.89L54.96 -13.08C54.93 -13.14 54.89 -13.2 54.83 -13.24C54.78 -13.29 54.73 -13.34 54.68 -13.38C54.66 -13.4 54.65 -13.41 54.63 -13.42C54.62 -13.43 54.57 -13.48 54.49 -13.59C54.46 -13.64 54.42 -13.68 54.38 -13.71C54.33 -13.74 54.27 -13.8 54.19 -13.87C54.17 -13.89 54.16 -13.9 54.14 -13.9C54.13 -13.9 54.04 -13.95 53.88 -14.04C53.8 -14.15 53.72 -14.19 53.63 -14.16C53.56 -14.2 53.5 -14.24 53.43 -14.26C53.36 -14.29 53.24 -14.33 53.09 -14.39C53.01 -14.41 52.94 -14.42 52.89 -14.44C52.83 -14.45 52.72 -14.5 52.55 -14.58C52.47 -14.55 52.4 -14.55 52.35 -14.58C52.29 -14.61 52.23 -14.62 52.17 -14.62C52.14 -14.64 52.11 -14.64 52.09 -14.64C52.07 -14.63 51.99 -14.64 51.87 -14.67C51.84 -14.67 51.82 -14.67 51.82 -14.66C51.82 -14.65 51.74 -14.67 51.59 -14.72L51.33 -14.72C51.2 -14.75 51.11 -14.77 51.05 -14.77C50.97 -14.77 50.9 -14.76 50.84 -14.74C50.77 -14.73 50.66 -14.73 50.51 -14.74C50.34 -14.76 50.15 -14.76 49.95 -14.74C49.87 -14.74 49.81 -14.73 49.78 -14.72C49.75 -14.7 49.68 -14.68 49.57 -14.65C49.54 -14.65 49.52 -14.64 49.52 -14.64C49.52 -14.63 49.45 -14.6 49.29 -14.55C49.23 -14.54 49.18 -14.52 49.14 -14.51C49.1 -14.49 49.06 -14.48 49.03 -14.46L48.86 -14.43C48.82 -14.42 48.78 -14.41 48.75 -14.39C48.69 -14.36 48.54 -14.3 48.3 -14.2C48.27 -14.19 48.24 -14.18 48.21 -14.18C48.18 -14.18 48.07 -14.13 47.88 -14.04C47.88 -14.01 47.87 -13.99 47.85 -13.98C47.82 -13.97 47.74 -13.91 47.6 -13.8C47.59 -13.77 47.5 -13.71 47.34 -13.62C47.33 -13.6 47.31 -13.59 47.29 -13.58C47.26 -13.57 47.19 -13.52 47.06 -13.43C47.03 -13.4 47 -13.38 46.98 -13.36C46.96 -13.34 46.87 -13.28 46.71 -13.17C46.71 -13.14 46.7 -13.12 46.68 -13.12C46.65 -13.12 46.61 -13.07 46.55 -12.96C46.52 -12.95 46.49 -12.93 46.48 -12.91C46.46 -12.9 46.38 -12.83 46.24 -12.7C46.21 -12.67 46.18 -12.64 46.16 -12.6C46.14 -12.56 46.1 -12.53 46.05 -12.52C46.04 -12.52 46.04 -12.5 46.04 -12.48C46.05 -12.46 46 -12.38 45.89 -12.26C45.86 -12.23 45.83 -12.2 45.8 -12.19C45.77 -12.17 45.68 -12.09 45.54 -11.93C45.54 -11.91 45.5 -11.84 45.42 -11.7C45.39 -11.68 45.34 -11.6 45.26 -11.46C45.23 -11.43 45.19 -11.4 45.15 -11.37C45.11 -11.34 45.09 -11.29 45.09 -11.23C45.06 -11.2 45.03 -11.15 45 -11.09C44.97 -11.02 44.91 -10.93 44.84 -10.8C44.76 -10.68 44.69 -10.5 44.63 -10.27L44.58 -10.17C44.56 -10.14 44.52 -10.08 44.46 -9.98C44.45 -9.95 44.44 -9.93 44.44 -9.9C44.44 -9.88 44.41 -9.8 44.37 -9.68C44.34 -9.6 44.31 -9.51 44.29 -9.41C44.26 -9.31 44.23 -9.19 44.2 -9.05C44.2 -9.02 44.2 -9 44.19 -8.99C44.18 -8.98 44.18 -8.89 44.18 -8.72C44.16 -8.67 44.14 -8.63 44.12 -8.59C44.1 -8.55 44.1 -8.5 44.13 -8.44C44.1 -8.41 44.09 -8.36 44.09 -8.31L44.09 -8.16C44.07 -8.08 44.07 -8 44.09 -7.92C44.1 -7.84 44.09 -7.73 44.06 -7.59L44.06 -7.32C44.06 -7.25 44.02 -7.1 43.95 -6.87C43.95 -6.82 43.96 -6.78 43.99 -6.74C44.02 -6.7 44.05 -6.66 44.06 -6.61C44.08 -6.56 44.08 -6.5 44.07 -6.43C44.07 -6.36 44.06 -6.31 44.06 -6.28C44.06 -6.27 44.07 -6.21 44.09 -6.11C44.1 -6 44.11 -5.91 44.11 -5.81C44.13 -5.73 44.14 -5.67 44.14 -5.62C44.15 -5.58 44.17 -5.48 44.2 -5.32C44.23 -5.26 44.26 -5.19 44.27 -5.12C44.29 -5.05 44.34 -4.9 44.41 -4.66C44.41 -4.65 44.42 -4.64 44.43 -4.64C44.43 -4.64 44.46 -4.56 44.51 -4.41L44.51 -4.3C44.51 -4.26 44.55 -4.16 44.63 -4.01C44.63 -3.96 44.63 -3.92 44.65 -3.89C44.66 -3.86 44.67 -3.8 44.67 -3.73C44.72 -3.68 44.8 -3.55 44.91 -3.33C44.92 -3.3 44.93 -3.27 44.93 -3.26C44.93 -3.24 44.98 -3.18 45.07 -3.07C45.1 -3.04 45.16 -2.96 45.26 -2.84C45.27 -2.8 45.28 -2.77 45.28 -2.74C45.28 -2.71 45.33 -2.65 45.42 -2.55C45.44 -2.43 45.48 -2.34 45.54 -2.3C45.57 -2.27 45.6 -2.23 45.62 -2.19C45.64 -2.15 45.68 -2.12 45.73 -2.09C45.76 -2.02 45.8 -1.98 45.84 -1.95C45.89 -1.91 45.97 -1.85 46.08 -1.76C46.11 -1.68 46.15 -1.62 46.21 -1.58C46.26 -1.54 46.3 -1.48 46.34 -1.41C46.41 -1.38 46.5 -1.31 46.59 -1.22L46.83 -1.08C46.86 -1.06 46.88 -1.05 46.89 -1.03C46.89 -1.02 46.95 -0.98 47.06 -0.94C47.08 -0.92 47.09 -0.91 47.1 -0.89C47.11 -0.88 47.2 -0.81 47.37 -0.7C47.41 -0.67 47.46 -0.65 47.52 -0.63C47.57 -0.62 47.62 -0.59 47.65 -0.54C47.7 -0.49 47.74 -0.46 47.78 -0.45C47.82 -0.43 47.86 -0.41 47.91 -0.37C48.03 -0.31 48.16 -0.27 48.28 -0.23L48.49 -0.07C48.52 -0.05 48.63 -0.02 48.82 0.02L48.96 0.07C49.01 0.09 49.09 0.1 49.2 0.12C49.26 0.13 49.31 0.14 49.36 0.14C49.41 0.14 49.46 0.15 49.52 0.16C49.59 0.18 49.64 0.2 49.7 0.21C49.75 0.23 49.88 0.23 50.06 0.23C50.11 0.25 50.2 0.27 50.32 0.28C50.45 0.31 50.55 0.34 50.64 0.35C50.72 0.37 50.8 0.36 50.86 0.33C50.95 0.34 51.04 0.36 51.13 0.38C51.21 0.39 51.3 0.4 51.4 0.4C51.48 0.4 51.55 0.39 51.63 0.38C51.71 0.36 51.81 0.35 51.94 0.35C52.03 0.32 52.13 0.31 52.22 0.32C52.31 0.32 52.48 0.3 52.71 0.26C52.8 0.24 52.89 0.23 52.98 0.22C53.07 0.21 53.15 0.2 53.23 0.19C53.29 0.17 53.34 0.16 53.39 0.16C53.44 0.16 53.52 0.14 53.63 0.09C53.69 0.08 53.8 0.05 53.95 0.02C54.03 0.01 54.1 -0.01 54.15 -0.04C54.21 -0.06 54.27 -0.07 54.33 -0.07C54.39 -0.13 54.45 -0.16 54.52 -0.16C54.58 -0.16 54.7 -0.2 54.87 -0.26L55.15 -0.37C55.2 -0.39 55.25 -0.4 55.3 -0.4C55.36 -0.4 55.44 -0.45 55.55 -0.54C55.58 -0.55 55.61 -0.57 55.63 -0.59C55.65 -0.6 55.71 -0.62 55.8 -0.63C55.84 -0.71 55.89 -0.75 55.97 -0.76C56.05 -0.77 56.16 -0.85 56.32 -1.01C56.34 -1.09 56.35 -1.18 56.37 -1.29C56.37 -1.34 56.36 -1.39 56.34 -1.45C56.33 -1.52 56.34 -1.65 56.39 -1.85C56.41 -2.07 56.41 -2.3 56.39 -2.55C56.39 -2.63 56.4 -2.72 56.43 -2.81C56.45 -2.91 56.46 -2.99 56.46 -3.07C56.46 -3.1 56.46 -3.14 56.45 -3.19C56.44 -3.23 56.44 -3.28 56.44 -3.33L56.44 -3.67C56.44 -3.77 56.43 -3.88 56.41 -4.01C56.41 -4.09 56.41 -4.15 56.4 -4.21C56.39 -4.26 56.4 -4.4 56.41 -4.62C56.41 -4.79 56.35 -4.89 56.23 -4.92C56.2 -4.94 56.07 -4.91 55.85 -4.85C55.82 -4.82 55.78 -4.8 55.73 -4.78C55.69 -4.77 55.59 -4.7 55.43 -4.57C55.4 -4.54 55.36 -4.51 55.3 -4.49C55.25 -4.46 55.17 -4.42 55.08 -4.36C55.05 -4.34 55 -4.33 54.95 -4.32C54.89 -4.32 54.85 -4.3 54.82 -4.29C54.68 -4.26 54.54 -4.21 54.41 -4.16C54.28 -4.11 54.15 -4.06 54.02 -4.03C53.95 -4.02 53.87 -4 53.81 -4C53.75 -3.99 53.61 -3.96 53.39 -3.91L53.25 -3.87C53.2 -3.85 53.16 -3.87 53.13 -3.91ZM52.2 -9.87L52.27 -9.82C52.23 -9.76 52.18 -9.72 52.1 -9.71C52.02 -9.71 51.94 -9.65 51.84 -9.54C51.83 -9.54 51.82 -9.53 51.81 -9.5C51.8 -9.48 51.71 -9.43 51.54 -9.35C51.51 -9.32 51.47 -9.3 51.42 -9.29C51.38 -9.29 51.32 -9.27 51.26 -9.23C51.23 -9.22 51.2 -9.21 51.18 -9.2C51.15 -9.19 51.09 -9.16 51 -9.12C50.95 -9.09 50.91 -9.07 50.86 -9.06C50.81 -9.05 50.73 -9.01 50.6 -8.93C50.57 -8.9 50.53 -8.87 50.47 -8.85C50.42 -8.82 50.3 -8.77 50.11 -8.7C50.08 -8.68 50.04 -8.66 49.99 -8.65C49.95 -8.63 49.86 -8.6 49.73 -8.55C49.72 -8.54 49.63 -8.48 49.45 -8.39C49.42 -8.36 49.38 -8.34 49.34 -8.32C49.29 -8.3 49.19 -8.26 49.03 -8.18C48.95 -8.2 48.81 -8.16 48.61 -8.06C48.58 -8.08 48.57 -8.1 48.6 -8.13C48.62 -8.16 48.62 -8.24 48.59 -8.37C48.59 -8.4 48.62 -8.54 48.68 -8.79C48.71 -8.79 48.75 -8.87 48.8 -9.02C48.81 -9.04 48.82 -9.06 48.81 -9.08C48.8 -9.11 48.84 -9.18 48.94 -9.3C48.95 -9.38 48.99 -9.44 49.04 -9.47C49.1 -9.5 49.15 -9.62 49.2 -9.82L49.24 -9.91C49.26 -9.95 49.33 -10.04 49.45 -10.2C49.47 -10.23 49.49 -10.26 49.51 -10.3C49.54 -10.34 49.59 -10.42 49.69 -10.55C49.7 -10.55 49.72 -10.55 49.73 -10.56L49.95 -10.66C49.95 -10.71 49.96 -10.74 49.99 -10.75C50.02 -10.75 50.12 -10.8 50.3 -10.9C50.31 -10.91 50.33 -10.92 50.34 -10.92C50.36 -10.92 50.45 -10.96 50.63 -11.04L50.89 -11.04C50.96 -11.04 51.11 -10.98 51.33 -10.87C51.36 -10.86 51.45 -10.79 51.61 -10.66C51.64 -10.63 51.73 -10.55 51.87 -10.43C51.9 -10.41 51.92 -10.4 51.93 -10.38L52.05 -10.12C52.1 -10.11 52.13 -10.08 52.14 -10.03C52.14 -9.98 52.16 -9.93 52.2 -9.87Z M63.28 -12.19L63.26 -12.26L63.26 -12.52C63.26 -12.63 63.24 -12.73 63.21 -12.84C63.18 -12.95 63.16 -13.05 63.16 -13.12C63.15 -13.16 63.14 -13.19 63.15 -13.22C63.16 -13.25 63.14 -13.34 63.09 -13.48C63.08 -13.6 63.05 -13.69 63 -13.73C62.95 -13.73 62.88 -13.79 62.77 -13.9C62.63 -13.91 62.51 -13.93 62.41 -13.93C62.32 -13.94 62.21 -13.95 62.09 -13.97C62.04 -13.94 61.98 -13.93 61.92 -13.93C61.86 -13.94 61.81 -13.95 61.78 -13.95C61.73 -13.93 61.7 -13.93 61.66 -13.93C61.63 -13.94 61.52 -13.93 61.34 -13.9C61.27 -13.88 61.22 -13.88 61.18 -13.89C61.14 -13.89 61.07 -13.89 60.96 -13.87C60.91 -13.87 60.87 -13.87 60.83 -13.86C60.79 -13.86 60.7 -13.85 60.54 -13.85C60.52 -13.85 60.51 -13.85 60.49 -13.84C60.48 -13.83 60.38 -13.84 60.21 -13.87C59.9 -13.92 59.62 -13.92 59.37 -13.87C59.32 -13.87 59.27 -13.87 59.21 -13.85C59.16 -13.84 59.11 -13.84 59.06 -13.87C59.05 -13.84 59.02 -13.83 58.97 -13.84C58.92 -13.85 58.84 -13.84 58.71 -13.83C58.7 -13.83 58.69 -13.82 58.69 -13.8C58.69 -13.79 58.62 -13.72 58.48 -13.59C58.43 -13.53 58.4 -13.47 58.38 -13.42C58.37 -13.36 58.33 -13.22 58.27 -12.98C58.27 -12.91 58.28 -12.83 58.3 -12.75C58.32 -12.67 58.34 -12.59 58.34 -12.52C58.34 -12.47 58.33 -12.42 58.32 -12.36C58.32 -12.31 58.31 -12.26 58.31 -12.21C58.31 -12.15 58.32 -12.08 58.34 -12C58.35 -11.92 58.35 -11.84 58.34 -11.77C58.34 -11.7 58.34 -11.65 58.36 -11.61C58.38 -11.57 58.38 -11.49 58.36 -11.37C58.34 -11.26 58.35 -11.16 58.37 -11.09C58.39 -11.01 58.41 -10.93 58.41 -10.85L58.41 -10.59L58.43 -10.01C58.43 -9.99 58.43 -9.98 58.42 -9.96C58.41 -9.95 58.41 -9.87 58.43 -9.73C58.43 -9.68 58.43 -9.64 58.42 -9.6C58.41 -9.56 58.4 -9.51 58.38 -9.45C58.38 -9.38 58.39 -9.32 58.41 -9.26C58.42 -9.2 58.42 -9.09 58.41 -8.95C58.41 -8.92 58.42 -8.89 58.44 -8.87C58.46 -8.85 58.48 -8.77 58.48 -8.62C58.49 -8.55 58.5 -8.48 58.49 -8.43C58.48 -8.37 58.49 -8.29 58.52 -8.18C58.52 -8.16 58.53 -8.08 58.55 -7.92C58.53 -7.8 58.53 -7.67 58.54 -7.55C58.54 -7.42 58.55 -7.26 58.57 -7.05C58.59 -6.93 58.59 -6.81 58.57 -6.69C58.55 -6.57 58.55 -6.45 58.55 -6.3C58.55 -6.24 58.55 -6.18 58.56 -6.13C58.57 -6.07 58.57 -6.02 58.57 -5.98C58.59 -5.85 58.59 -5.74 58.58 -5.64C58.57 -5.54 58.57 -5.42 58.57 -5.3C58.57 -5.27 58.57 -5.24 58.56 -5.21C58.55 -5.19 58.55 -5.09 58.55 -4.92C58.58 -4.86 58.59 -4.8 58.57 -4.73C58.55 -4.67 58.55 -4.6 58.55 -4.52C58.53 -4.49 58.53 -4.47 58.54 -4.45C58.54 -4.44 58.53 -4.34 58.5 -4.15C58.5 -4.04 58.5 -3.93 58.51 -3.82C58.52 -3.71 58.52 -3.62 58.52 -3.54C58.52 -3.51 58.52 -3.48 58.51 -3.46C58.5 -3.43 58.51 -3.36 58.52 -3.23C58.52 -3.2 58.51 -3.08 58.48 -2.86C58.46 -2.83 58.45 -2.78 58.45 -2.72L58.45 -2.51C58.45 -2.49 58.44 -2.4 58.41 -2.23C58.41 -2.05 58.4 -1.94 58.38 -1.87C58.37 -1.78 58.36 -1.67 58.35 -1.54C58.34 -1.4 58.34 -1.23 58.34 -1.03C58.34 -1.02 58.37 -0.9 58.43 -0.68C58.45 -0.65 58.46 -0.62 58.46 -0.59C58.47 -0.55 58.5 -0.46 58.55 -0.3C58.61 -0.26 58.67 -0.21 58.73 -0.15C58.8 -0.1 58.88 -0.02 58.99 0.07C59.07 0.07 59.15 0.09 59.24 0.12C59.32 0.15 59.48 0.18 59.7 0.21C59.77 0.24 59.86 0.25 59.94 0.25C60.03 0.24 60.19 0.23 60.42 0.21L61.05 0.12C61.07 0.12 61.09 0.12 61.11 0.13C61.14 0.14 61.23 0.14 61.41 0.14C61.42 0.14 61.43 0.14 61.44 0.15C61.45 0.16 61.55 0.16 61.73 0.14C61.77 0.14 61.8 0.14 61.85 0.13C61.9 0.12 61.95 0.12 61.99 0.12C62.04 0.1 62.09 0.1 62.13 0.11C62.18 0.11 62.26 0.1 62.37 0.07C62.51 0.02 62.63 0.01 62.74 0.02C62.77 -0.02 62.82 -0.07 62.88 -0.11C62.95 -0.14 62.99 -0.19 63.02 -0.23C63.04 -0.27 63.05 -0.3 63.05 -0.33C63.05 -0.36 63.09 -0.45 63.16 -0.59C63.16 -0.65 63.17 -0.73 63.19 -0.84C63.2 -0.87 63.21 -0.94 63.21 -1.03C63.21 -1.12 63.2 -1.23 63.16 -1.36C63.16 -1.41 63.16 -1.45 63.14 -1.5C63.13 -1.55 63.11 -1.63 63.09 -1.76C63.03 -1.96 63 -2.25 63 -2.62C63 -2.7 63 -2.78 62.99 -2.85C62.98 -2.92 62.98 -2.98 62.98 -3.05C62.98 -3.14 62.98 -3.23 63 -3.32C63.02 -3.4 63.02 -3.56 63 -3.8C63 -3.83 63 -3.87 63.01 -3.91C63.02 -3.96 63.02 -4.01 63.02 -4.05C63.04 -4.12 63.06 -4.26 63.09 -4.48C63.09 -4.54 63.09 -4.6 63.08 -4.65C63.07 -4.71 63.08 -4.82 63.09 -4.99C63.09 -5.02 63.09 -5.05 63.08 -5.09C63.07 -5.12 63.08 -5.21 63.09 -5.37C63.12 -5.43 63.12 -5.56 63.09 -5.77C63.09 -5.84 63.1 -5.93 63.12 -6.01C63.13 -6.1 63.15 -6.18 63.16 -6.26C63.2 -6.37 63.22 -6.46 63.25 -6.55C63.27 -6.64 63.31 -6.71 63.38 -6.77C63.38 -6.85 63.39 -6.92 63.42 -6.97C63.45 -7.03 63.51 -7.15 63.59 -7.34L63.68 -7.43C63.71 -7.46 63.73 -7.51 63.75 -7.57C63.78 -7.6 63.82 -7.63 63.86 -7.66C63.89 -7.7 63.93 -7.73 63.96 -7.76C64.01 -7.79 64.05 -7.83 64.1 -7.89C64.15 -7.94 64.23 -8.01 64.34 -8.09C64.38 -8.13 64.45 -8.19 64.55 -8.25C64.58 -8.28 64.61 -8.31 64.65 -8.33C64.69 -8.36 64.73 -8.39 64.76 -8.44C64.8 -8.45 64.84 -8.48 64.88 -8.51C64.91 -8.54 65.01 -8.59 65.18 -8.65C65.24 -8.71 65.33 -8.77 65.44 -8.81C65.48 -8.81 65.59 -8.83 65.77 -8.86C65.8 -8.87 65.83 -8.89 65.87 -8.91C65.91 -8.92 65.98 -8.94 66.09 -8.95C66.13 -8.98 66.23 -9.02 66.4 -9.05C66.43 -9.08 66.47 -9.11 66.52 -9.13C66.56 -9.15 66.66 -9.19 66.8 -9.23L67.05 -9.23C67.12 -9.25 67.29 -9.27 67.57 -9.28C67.62 -9.28 67.66 -9.27 67.71 -9.25C67.76 -9.22 67.8 -9.22 67.85 -9.23L67.96 -9.16C67.98 -9.15 68.08 -9.17 68.25 -9.23C68.3 -9.25 68.34 -9.26 68.38 -9.26C68.42 -9.26 68.46 -9.28 68.51 -9.33C68.54 -9.37 68.59 -9.51 68.67 -9.73C68.69 -9.77 68.7 -9.82 68.71 -9.88C68.71 -9.93 68.73 -10.04 68.77 -10.2C68.78 -10.24 68.8 -10.3 68.81 -10.36C68.83 -10.42 68.84 -10.48 68.84 -10.55C68.84 -10.64 68.83 -10.73 68.82 -10.83C68.82 -10.92 68.81 -11.02 68.81 -11.11C68.81 -11.19 68.82 -11.26 68.84 -11.33C68.85 -11.4 68.86 -11.48 68.86 -11.55C68.89 -11.73 68.89 -11.89 68.86 -12.05C68.94 -12.12 68.97 -12.27 68.96 -12.49C68.96 -12.71 68.96 -12.87 68.98 -12.96C69.01 -13.12 69.01 -13.28 68.98 -13.45C68.98 -13.47 68.95 -13.56 68.88 -13.73C68.87 -13.75 68.86 -13.76 68.87 -13.76C68.88 -13.76 68.82 -13.81 68.7 -13.92C68.68 -13.98 68.66 -14.03 68.63 -14.06C68.59 -14.09 68.56 -14.13 68.53 -14.18C68.44 -14.18 68.36 -14.21 68.3 -14.27C68.23 -14.34 68.16 -14.37 68.06 -14.39C68.02 -14.41 67.96 -14.41 67.89 -14.4C67.82 -14.39 67.68 -14.39 67.48 -14.39C67.45 -14.39 67.35 -14.4 67.2 -14.41C67.16 -14.4 67.13 -14.39 67.08 -14.4C67.03 -14.41 66.98 -14.4 66.91 -14.37C66.9 -14.37 66.8 -14.33 66.61 -14.25C66.52 -14.25 66.38 -14.22 66.21 -14.16C66.13 -14.11 66.05 -14.08 65.95 -14.06C65.91 -14.03 65.87 -14 65.84 -13.98C65.8 -13.96 65.77 -13.93 65.74 -13.9C65.73 -13.9 65.71 -13.89 65.71 -13.89C65.7 -13.88 65.61 -13.84 65.44 -13.78C65.39 -13.75 65.31 -13.71 65.2 -13.66C65.14 -13.63 65.08 -13.59 65.03 -13.54C64.97 -13.48 64.89 -13.43 64.78 -13.38L64.69 -13.29L64.48 -13.08C64.48 -13.06 64.41 -12.99 64.29 -12.87C64.23 -12.77 64.12 -12.66 63.96 -12.52C63.93 -12.48 63.9 -12.46 63.87 -12.45C63.84 -12.43 63.76 -12.37 63.63 -12.28C63.57 -12.22 63.45 -12.19 63.28 -12.19Z M94.41 -1.01C94.42 -1.09 94.44 -1.16 94.46 -1.23C94.49 -1.3 94.51 -1.38 94.52 -1.45C94.52 -1.58 94.52 -1.7 94.5 -1.83C94.48 -1.95 94.48 -2.09 94.48 -2.23C94.46 -2.32 94.45 -2.42 94.43 -2.52C94.41 -2.62 94.39 -2.72 94.36 -2.81C94.31 -2.98 94.27 -3.16 94.22 -3.35C94.17 -3.54 94.16 -3.72 94.2 -3.89C94.16 -3.95 94.14 -4.02 94.14 -4.08C94.13 -4.14 94.12 -4.21 94.1 -4.29L94.1 -4.85C94.12 -4.95 94.13 -5.04 94.14 -5.12C94.14 -5.21 94.13 -5.3 94.1 -5.39C94.09 -5.42 94.09 -5.45 94.11 -5.46C94.14 -5.48 94.14 -5.54 94.13 -5.65C94.13 -5.68 94.12 -5.7 94.11 -5.71C94.11 -5.71 94.1 -5.79 94.1 -5.93L94.08 -6.45C94.08 -6.55 94.09 -6.66 94.1 -6.76C94.12 -6.86 94.11 -6.95 94.08 -7.03C94.11 -7.11 94.12 -7.2 94.1 -7.29C94.09 -7.38 94.09 -7.54 94.1 -7.76C94.1 -7.79 94.1 -7.82 94.09 -7.84C94.08 -7.86 94.09 -7.97 94.1 -8.16C94.12 -8.2 94.12 -8.25 94.1 -8.3C94.09 -8.34 94.09 -8.48 94.1 -8.7C94.12 -8.71 94.12 -8.73 94.11 -8.75C94.11 -8.78 94.11 -8.87 94.13 -9.02C94.13 -9.15 94.13 -9.28 94.15 -9.42C94.16 -9.56 94.18 -9.7 94.2 -9.82C94.2 -9.84 94.19 -9.85 94.18 -9.87C94.18 -9.88 94.18 -9.98 94.2 -10.15L94.2 -10.64C94.18 -10.73 94.18 -10.82 94.18 -10.9C94.19 -10.98 94.2 -11.05 94.2 -11.11C94.16 -11.38 94.16 -11.66 94.17 -11.98C94.17 -12.1 94.18 -12.23 94.2 -12.36C94.21 -12.5 94.21 -12.63 94.2 -12.75C94.18 -12.92 94.18 -13.1 94.18 -13.28C94.19 -13.46 94.2 -13.63 94.22 -13.8L94.22 -14C94.22 -14.06 94.23 -14.12 94.24 -14.2C94.26 -14.28 94.27 -14.35 94.29 -14.4C94.3 -14.46 94.33 -14.59 94.36 -14.79C94.36 -14.84 94.38 -14.92 94.41 -15.05C94.44 -15.17 94.45 -15.28 94.43 -15.37C94.43 -15.48 94.44 -15.59 94.46 -15.69C94.49 -15.79 94.5 -15.89 94.5 -15.98C94.5 -16.05 94.5 -16.1 94.49 -16.15C94.48 -16.2 94.49 -16.28 94.52 -16.41C94.52 -16.47 94.53 -16.53 94.54 -16.58C94.54 -16.64 94.54 -16.69 94.52 -16.73C94.46 -16.84 94.33 -16.98 94.13 -17.13C94.09 -17.16 94.06 -17.18 94.02 -17.18C93.98 -17.18 93.86 -17.2 93.66 -17.25C93.63 -17.25 93.58 -17.25 93.53 -17.26C93.47 -17.27 93.36 -17.27 93.19 -17.25C93.11 -17.23 93.04 -17.23 92.99 -17.24C92.93 -17.25 92.87 -17.25 92.79 -17.25C92.74 -17.25 92.7 -17.25 92.67 -17.24C92.64 -17.23 92.55 -17.24 92.41 -17.27L92.13 -17.27C92.05 -17.29 91.99 -17.3 91.93 -17.3C91.88 -17.3 91.83 -17.3 91.78 -17.32C91.69 -17.35 91.59 -17.37 91.5 -17.38C91.41 -17.39 91.3 -17.4 91.17 -17.41C91.14 -17.41 91.11 -17.42 91.09 -17.44C91.07 -17.45 90.96 -17.45 90.77 -17.44C90.73 -17.44 90.69 -17.44 90.66 -17.45C90.63 -17.46 90.52 -17.45 90.33 -17.44C90.22 -17.47 90.12 -17.48 90.05 -17.47C89.97 -17.46 89.88 -17.46 89.77 -17.46C89.73 -17.45 89.7 -17.44 89.66 -17.44C89.62 -17.44 89.52 -17.41 89.34 -17.34C89.31 -17.33 89.28 -17.32 89.25 -17.32C89.22 -17.32 89.13 -17.3 88.99 -17.27C88.99 -17.24 88.98 -17.23 88.97 -17.25C88.95 -17.27 88.88 -17.21 88.76 -17.09L88.66 -16.99C88.63 -16.96 88.57 -16.87 88.48 -16.71C88.46 -16.65 88.45 -16.47 88.45 -16.17C88.45 -16.12 88.45 -16.07 88.44 -16.02C88.43 -15.96 88.44 -15.87 88.45 -15.73C88.47 -15.65 88.48 -15.57 88.48 -15.5L88.48 -15.28C88.49 -15.19 88.5 -15.09 88.5 -15C88.5 -14.91 88.51 -14.81 88.52 -14.72C88.52 -14.7 88.53 -14.69 88.54 -14.67C88.54 -14.66 88.55 -14.58 88.55 -14.44C88.58 -14.31 88.59 -14.23 88.59 -14.18C88.59 -14.09 88.59 -13.99 88.58 -13.9C88.57 -13.8 88.56 -13.71 88.55 -13.62C88.53 -13.41 88.52 -13.24 88.52 -13.09C88.52 -12.94 88.53 -12.77 88.55 -12.59C88.56 -12.46 88.59 -12.31 88.62 -12.14C88.65 -11.97 88.63 -11.8 88.57 -11.65C88.59 -11.62 88.6 -11.52 88.62 -11.37L88.62 -10.92C88.62 -10.87 88.62 -10.83 88.63 -10.78C88.64 -10.73 88.63 -10.69 88.62 -10.64C88.62 -10.59 88.61 -10.54 88.58 -10.49C88.56 -10.43 88.55 -10.38 88.55 -10.34C88.53 -10.3 88.53 -10.28 88.54 -10.27C88.54 -10.25 88.53 -10.19 88.5 -10.08C88.5 -10.05 88.51 -10.02 88.52 -10.01C88.54 -9.99 88.53 -9.91 88.5 -9.77L88.5 -9.62C88.5 -9.57 88.49 -9.51 88.48 -9.45C88.48 -9.38 88.47 -9.32 88.46 -9.27C88.46 -9.21 88.45 -9.15 88.43 -9.07C88.41 -9.01 88.4 -8.95 88.39 -8.89C88.39 -8.84 88.37 -8.79 88.34 -8.74C88.29 -8.73 88.2 -8.71 88.05 -8.7C88.02 -8.66 87.98 -8.67 87.94 -8.71C87.89 -8.75 87.85 -8.8 87.82 -8.86C87.77 -8.91 87.73 -8.95 87.69 -9C87.65 -9.05 87.62 -9.09 87.59 -9.12C87.57 -9.13 87.55 -9.14 87.54 -9.15C87.52 -9.16 87.46 -9.23 87.35 -9.37C87.29 -9.48 87.23 -9.58 87.19 -9.66C87.14 -9.73 87.04 -9.87 86.88 -10.05C86.84 -10.1 86.8 -10.14 86.77 -10.18C86.73 -10.22 86.7 -10.28 86.67 -10.36C86.64 -10.39 86.61 -10.43 86.59 -10.48C86.57 -10.52 86.52 -10.62 86.44 -10.76L86.23 -11.11C86.21 -11.12 86.16 -11.23 86.09 -11.41C86.05 -11.48 86.02 -11.52 85.98 -11.55C85.94 -11.59 85.91 -11.62 85.88 -11.67C85.84 -11.7 85.82 -11.73 85.82 -11.75C85.81 -11.78 85.78 -11.87 85.73 -12.02C85.67 -12.02 85.63 -12.05 85.62 -12.09C85.6 -12.14 85.58 -12.18 85.55 -12.21C85.52 -12.32 85.47 -12.41 85.41 -12.49C85.34 -12.57 85.3 -12.66 85.27 -12.77C85.22 -12.84 85.17 -12.89 85.13 -12.95C85.08 -13 85.04 -13.06 85.01 -13.12C84.96 -13.19 84.92 -13.25 84.89 -13.31C84.86 -13.38 84.81 -13.43 84.75 -13.48C84.73 -13.54 84.72 -13.59 84.7 -13.64C84.69 -13.69 84.67 -13.73 84.66 -13.76C84.64 -13.77 84.63 -13.78 84.62 -13.78C84.61 -13.78 84.57 -13.85 84.49 -13.99C84.48 -14.02 84.46 -14.05 84.46 -14.07C84.45 -14.1 84.41 -14.15 84.35 -14.23C84.32 -14.26 84.29 -14.3 84.27 -14.36C84.25 -14.41 84.22 -14.45 84.19 -14.48C84.2 -14.55 84.2 -14.61 84.18 -14.66C84.15 -14.71 84.1 -14.81 84.02 -14.95C84.01 -14.98 84 -15 83.99 -15.01C83.98 -15.02 83.95 -15.08 83.91 -15.19C83.89 -15.23 83.87 -15.27 83.86 -15.3C83.84 -15.34 83.81 -15.41 83.77 -15.54C83.75 -15.57 83.74 -15.61 83.73 -15.66C83.72 -15.7 83.67 -15.8 83.58 -15.96C83.56 -15.99 83.55 -16.02 83.55 -16.03C83.55 -16.05 83.53 -16.11 83.48 -16.22C83.47 -16.25 83.46 -16.27 83.46 -16.29C83.46 -16.3 83.42 -16.41 83.34 -16.59C83.31 -16.66 83.26 -16.73 83.18 -16.8C83.15 -16.85 83.11 -16.9 83.06 -16.95C83.02 -16.99 82.98 -17.04 82.95 -17.09C82.91 -17.18 82.85 -17.27 82.76 -17.34C82.73 -17.37 82.69 -17.39 82.65 -17.38C82.61 -17.37 82.51 -17.39 82.34 -17.44C82.26 -17.44 82.18 -17.43 82.11 -17.41C82.04 -17.4 81.91 -17.38 81.7 -17.37C81.69 -17.34 81.59 -17.28 81.42 -17.2C81.38 -17.17 81.32 -17.14 81.27 -17.12C81.21 -17.1 81.16 -17.08 81.09 -17.06C81.05 -17.05 80.96 -17.02 80.84 -16.99C80.79 -16.98 80.73 -16.95 80.65 -16.92C80.57 -16.89 80.52 -16.88 80.48 -16.9L80.06 -16.83C80.03 -16.81 80 -16.81 79.96 -16.82C79.92 -16.82 79.84 -16.81 79.71 -16.78C79.65 -16.77 79.59 -16.76 79.55 -16.77C79.5 -16.78 79.45 -16.78 79.38 -16.78C79.23 -16.78 79.08 -16.76 78.94 -16.71L78.63 -16.64C78.57 -16.61 78.51 -16.59 78.45 -16.58C78.38 -16.57 78.3 -16.52 78.19 -16.41C78.08 -16.33 77.98 -16.17 77.91 -15.94C77.89 -15.91 77.89 -15.87 77.89 -15.84C77.9 -15.81 77.9 -15.75 77.88 -15.66C77.88 -15.53 77.89 -15.43 77.91 -15.35C77.92 -15.27 77.93 -15.1 77.93 -14.84C77.95 -14.71 77.95 -14.59 77.95 -14.46C77.95 -14.34 77.96 -14.17 77.98 -13.97C77.98 -13.92 77.97 -13.87 77.96 -13.82C77.96 -13.76 77.96 -13.71 77.98 -13.66L77.98 -13.31C77.98 -13.19 78.01 -13 78.07 -12.75C78.09 -12.72 78.09 -12.69 78.08 -12.66C78.07 -12.63 78.09 -12.54 78.12 -12.4C78.13 -12.34 78.14 -12.27 78.14 -12.21C78.14 -12.15 78.16 -12.06 78.19 -11.95L78.21 -11.6C78.2 -11.59 78.2 -11.5 78.21 -11.34L78.21 -10.97C78.21 -10.89 78.22 -10.82 78.23 -10.75C78.25 -10.68 78.25 -10.53 78.23 -10.31C78.23 -10.2 78.26 -10.09 78.3 -9.98L78.33 -9.45C78.36 -9.26 78.35 -9.1 78.3 -8.98C78.34 -8.91 78.36 -8.79 78.38 -8.6C78.38 -8.57 78.37 -8.54 78.36 -8.52C78.36 -8.5 78.35 -8.41 78.35 -8.27C78.35 -8.2 78.35 -8.13 78.34 -8.09C78.33 -8.04 78.34 -7.99 78.35 -7.95L78.35 -7.52C78.34 -7.48 78.33 -7.43 78.34 -7.38C78.35 -7.34 78.35 -7.22 78.35 -7.03C78.38 -6.95 78.39 -6.87 78.36 -6.79C78.34 -6.7 78.33 -6.61 78.33 -6.52C78.33 -6.42 78.34 -6.33 78.35 -6.25C78.37 -6.16 78.36 -6.08 78.33 -6C78.36 -5.94 78.37 -5.88 78.36 -5.81C78.36 -5.75 78.36 -5.69 78.38 -5.62C78.38 -5.55 78.38 -5.48 78.39 -5.43C78.39 -5.37 78.4 -5.32 78.4 -5.27C78.41 -5.18 78.42 -5.09 78.42 -4.99L78.42 -4.71L78.45 -4.43C78.46 -4.32 78.46 -4.23 78.46 -4.17C78.45 -4.11 78.45 -3.99 78.45 -3.82C78.43 -3.77 78.43 -3.73 78.45 -3.7C78.46 -3.67 78.45 -3.59 78.42 -3.47C78.41 -3.42 78.4 -3.38 78.41 -3.34C78.42 -3.3 78.42 -3.26 78.42 -3.21C78.42 -3.09 78.4 -2.93 78.35 -2.74C78.35 -2.66 78.35 -2.59 78.34 -2.51C78.33 -2.43 78.33 -2.35 78.33 -2.27C78.33 -2.21 78.34 -2.1 78.38 -1.95C78.34 -1.88 78.32 -1.79 78.3 -1.66L78.3 -1.54C78.3 -1.48 78.27 -1.39 78.21 -1.27C78.2 -1.19 78.18 -1.11 78.16 -1.04C78.15 -0.97 78.15 -0.84 78.16 -0.66C78.16 -0.59 78.16 -0.53 78.15 -0.47C78.14 -0.41 78.14 -0.34 78.14 -0.28L78.2 -0.16C78.22 -0.12 78.24 -0.07 78.26 -0.02C78.3 0.01 78.35 0.03 78.39 0.04C78.43 0.04 78.5 0.09 78.61 0.16C78.64 0.18 78.66 0.19 78.67 0.2C78.68 0.21 78.77 0.23 78.96 0.28L79.24 0.35C79.27 0.35 79.3 0.36 79.32 0.36C79.35 0.37 79.41 0.38 79.5 0.38C79.55 0.38 79.6 0.38 79.65 0.4C79.71 0.41 79.81 0.41 79.97 0.38C80.06 0.34 80.22 0.31 80.44 0.28C80.5 0.31 80.57 0.32 80.65 0.32C80.73 0.31 80.81 0.3 80.91 0.28C81 0.25 81.09 0.24 81.16 0.26C81.24 0.24 81.3 0.23 81.35 0.21C81.4 0.2 81.44 0.19 81.47 0.19C81.52 0.19 81.56 0.2 81.61 0.21C81.66 0.23 81.76 0.23 81.91 0.21C82.01 0.2 82.09 0.19 82.16 0.19L82.38 0.19C82.51 0.2 82.67 0.22 82.86 0.23C83.06 0.25 83.27 0.27 83.48 0.3L83.77 0.35C83.77 0.3 83.79 0.29 83.82 0.29C83.86 0.3 83.95 0.27 84.07 0.19C84.07 0.16 84.08 0.14 84.09 0.14C84.11 0.14 84.18 0.06 84.3 -0.09C84.34 -0.14 84.35 -0.19 84.35 -0.25C84.35 -0.3 84.38 -0.45 84.42 -0.68C84.42 -0.7 84.42 -0.71 84.41 -0.71C84.4 -0.72 84.4 -0.8 84.4 -0.94C84.38 -0.95 84.37 -1.05 84.35 -1.22L84.26 -1.57C84.24 -1.62 84.23 -1.67 84.22 -1.72C84.21 -1.78 84.2 -1.85 84.19 -1.95C84.19 -1.98 84.18 -2.01 84.18 -2.05C84.17 -2.09 84.17 -2.19 84.19 -2.34C84.19 -2.39 84.18 -2.44 84.18 -2.5C84.17 -2.55 84.16 -2.59 84.16 -2.62C84.16 -2.64 84.17 -2.65 84.18 -2.66C84.18 -2.67 84.19 -2.74 84.19 -2.88C84.16 -2.96 84.14 -3.05 84.15 -3.14C84.16 -3.23 84.16 -3.32 84.14 -3.4C84.14 -3.48 84.13 -3.54 84.12 -3.59C84.1 -3.63 84.09 -3.73 84.09 -3.87C84.11 -3.95 84.11 -4.03 84.11 -4.11C84.1 -4.2 84.09 -4.26 84.09 -4.29C84.09 -4.35 84.1 -4.41 84.11 -4.48C84.11 -4.54 84.12 -4.59 84.12 -4.64C84.13 -4.69 84.14 -4.76 84.14 -4.85C84.14 -4.95 84.13 -5.02 84.12 -5.09C84.12 -5.13 84.11 -5.18 84.09 -5.23L84.05 -5.37L84.02 -5.81C84.02 -5.83 84.03 -5.86 84.04 -5.91C84.04 -5.95 84.05 -6.02 84.05 -6.09C84.05 -6.16 84.05 -6.22 84.07 -6.28C84.09 -6.34 84.09 -6.41 84.09 -6.47C84.09 -6.55 84.09 -6.61 84.07 -6.67C84.05 -6.72 84.05 -6.77 84.05 -6.82C84.05 -6.85 84.05 -6.88 84.06 -6.89C84.07 -6.91 84.07 -7 84.07 -7.17L84.09 -7.43C84.11 -7.51 84.12 -7.58 84.14 -7.65C84.16 -7.72 84.19 -7.77 84.23 -7.8C84.33 -7.77 84.41 -7.68 84.49 -7.52C84.49 -7.49 84.5 -7.48 84.5 -7.48C84.51 -7.48 84.55 -7.4 84.61 -7.24C84.67 -7.18 84.76 -7.05 84.87 -6.87C84.9 -6.87 84.91 -6.86 84.91 -6.84C84.91 -6.83 84.95 -6.77 85.03 -6.66C85.05 -6.58 85.07 -6.52 85.09 -6.47C85.11 -6.42 85.19 -6.3 85.31 -6.09C85.34 -6.03 85.39 -5.95 85.45 -5.86C85.48 -5.83 85.53 -5.75 85.59 -5.62L85.65 -5.51C85.68 -5.46 85.7 -5.42 85.73 -5.39C85.77 -5.3 85.8 -5.21 85.83 -5.13C85.86 -5.09 85.89 -5.04 85.91 -4.98C85.93 -4.93 85.95 -4.88 85.97 -4.85C86 -4.8 86.04 -4.75 86.07 -4.7C86.11 -4.64 86.16 -4.59 86.2 -4.55C86.23 -4.48 86.27 -4.43 86.3 -4.38L86.39 -4.24C86.41 -4.23 86.41 -4.21 86.41 -4.2C86.41 -4.18 86.46 -4.11 86.55 -3.98C86.6 -3.91 86.64 -3.83 86.67 -3.75C86.69 -3.73 86.73 -3.64 86.79 -3.47C86.82 -3.44 86.84 -3.41 86.85 -3.4C86.86 -3.38 86.9 -3.31 86.98 -3.19C86.99 -3.17 87 -3.16 87.01 -3.16C87.02 -3.16 87.07 -3.09 87.16 -2.93L87.33 -2.72C87.34 -2.67 87.36 -2.62 87.39 -2.58C87.41 -2.53 87.46 -2.41 87.54 -2.23C87.59 -2.15 87.63 -2.07 87.68 -2C87.73 -1.93 87.77 -1.86 87.8 -1.78C87.88 -1.73 87.95 -1.61 88.01 -1.41C88.05 -1.41 88.08 -1.39 88.09 -1.35C88.1 -1.31 88.13 -1.25 88.17 -1.17C88.2 -1.11 88.23 -1.04 88.27 -0.97C88.3 -0.9 88.33 -0.84 88.36 -0.8C88.37 -0.77 88.39 -0.74 88.39 -0.71C88.4 -0.69 88.44 -0.63 88.5 -0.54C88.53 -0.46 88.57 -0.38 88.61 -0.29C88.64 -0.21 88.72 -0.09 88.83 0.05C88.91 0.12 89.07 0.2 89.32 0.28C89.35 0.28 89.37 0.29 89.39 0.32C89.41 0.34 89.48 0.37 89.63 0.4C89.69 0.41 89.8 0.42 89.95 0.42L90.22 0.42C90.32 0.42 90.41 0.41 90.49 0.4C90.55 0.4 90.61 0.39 90.67 0.38C90.72 0.36 90.78 0.34 90.84 0.33L91.2 0.26C91.23 0.24 91.25 0.23 91.28 0.22L91.52 0.14C91.55 0.12 91.59 0.12 91.62 0.12C91.65 0.12 91.73 0.09 91.88 0.05C91.91 0.03 91.95 0.02 92 0.02C92.06 0.02 92.14 0 92.25 -0.05C92.28 -0.06 92.31 -0.07 92.34 -0.06C92.37 -0.05 92.44 -0.07 92.53 -0.12C92.59 -0.15 92.65 -0.18 92.71 -0.2C92.76 -0.22 92.87 -0.26 93.02 -0.3C93.04 -0.32 93.05 -0.33 93.07 -0.33C93.09 -0.33 93.19 -0.37 93.38 -0.45C93.47 -0.49 93.55 -0.53 93.63 -0.55C93.71 -0.57 93.8 -0.62 93.91 -0.68C93.96 -0.73 94 -0.78 94.04 -0.83C94.08 -0.89 94.12 -0.93 94.15 -0.96C94.21 -0.95 94.26 -0.95 94.3 -0.96C94.34 -0.98 94.38 -0.99 94.41 -1.01Z M108.68 -13.73C108.65 -13.73 108.63 -13.74 108.61 -13.76C108.59 -13.77 108.51 -13.8 108.35 -13.85C108.32 -13.82 108.27 -13.81 108.21 -13.82C108.15 -13.82 108.09 -13.83 108.02 -13.83C107.95 -13.83 107.88 -13.82 107.84 -13.82C107.79 -13.81 107.74 -13.81 107.7 -13.83C107.66 -13.83 107.64 -13.83 107.61 -13.84C107.59 -13.85 107.5 -13.85 107.34 -13.85C107.31 -13.85 107.28 -13.85 107.25 -13.84C107.22 -13.83 107.16 -13.83 107.09 -13.83C107.05 -13.83 107.03 -13.83 107.02 -13.84C107 -13.85 106.94 -13.85 106.83 -13.85C106.73 -13.88 106.65 -13.9 106.57 -13.9C106.52 -13.9 106.48 -13.89 106.43 -13.87C106.38 -13.86 106.34 -13.85 106.29 -13.85C106.24 -13.85 106.19 -13.86 106.13 -13.86C106.06 -13.87 106 -13.87 105.94 -13.87C105.89 -13.87 105.84 -13.88 105.79 -13.89C105.73 -13.89 105.69 -13.9 105.66 -13.9C105.63 -13.9 105.59 -13.89 105.56 -13.87C105.53 -13.86 105.43 -13.83 105.26 -13.78C105.16 -13.81 105.07 -13.82 104.96 -13.8C104.86 -13.79 104.75 -13.8 104.63 -13.83C104.58 -13.8 104.53 -13.77 104.48 -13.76C104.44 -13.74 104.4 -13.73 104.37 -13.71C104.32 -13.7 104.29 -13.68 104.26 -13.65C104.24 -13.63 104.18 -13.56 104.09 -13.45C103.99 -13.41 103.94 -13.31 103.92 -13.17C103.91 -13.03 103.89 -12.9 103.88 -12.77C103.84 -12.68 103.84 -12.56 103.85 -12.42C103.85 -12.34 103.86 -12.27 103.86 -12.2C103.87 -12.13 103.87 -12.06 103.85 -12C103.85 -11.95 103.84 -11.92 103.83 -11.89C103.81 -11.87 103.8 -11.8 103.8 -11.7C103.8 -11.62 103.8 -11.55 103.79 -11.48C103.79 -11.42 103.8 -11.29 103.85 -11.09C103.88 -10.99 103.9 -10.89 103.9 -10.78C103.9 -10.73 103.91 -10.69 103.92 -10.64C103.94 -10.59 103.95 -10.5 103.95 -10.36C103.95 -10.33 103.94 -10.3 103.93 -10.28C103.93 -10.25 103.94 -10.18 103.97 -10.05C103.97 -10.02 103.96 -10 103.96 -9.98C103.95 -9.97 103.95 -9.91 103.95 -9.8C103.98 -9.72 103.99 -9.64 103.98 -9.56C103.97 -9.48 103.97 -9.35 103.97 -9.16C104.02 -9.02 104.03 -8.87 104.02 -8.72C103.98 -8.66 103.98 -8.59 103.99 -8.52C104.01 -8.45 104.02 -8.39 104.04 -8.34C104.01 -8.3 104 -8.25 104 -8.2C104.01 -8.16 104.02 -8.1 104.02 -8.04C104.02 -7.99 104.02 -7.94 104.04 -7.89C104.05 -7.83 104.05 -7.73 104.02 -7.59C103.98 -7.48 103.98 -7.39 103.99 -7.31C104.01 -7.23 104.02 -7.16 104.02 -7.08C104.02 -7.03 104.01 -6.98 103.99 -6.94C103.98 -6.89 103.96 -6.77 103.95 -6.59C103.99 -6.51 104.01 -6.44 103.99 -6.39C103.98 -6.33 103.97 -6.24 103.97 -6.12C103.95 -5.99 103.96 -5.88 103.98 -5.79C104 -5.7 104 -5.58 103.97 -5.44C103.94 -5.41 103.9 -5.37 103.86 -5.34C103.82 -5.31 103.79 -5.28 103.76 -5.25C103.73 -5.22 103.7 -5.18 103.66 -5.14C103.63 -5.11 103.53 -5.02 103.36 -4.87C103.33 -4.87 103.24 -4.82 103.1 -4.71C103.07 -4.68 103.04 -4.66 103.02 -4.65C103 -4.64 102.9 -4.59 102.73 -4.48C102.7 -4.45 102.61 -4.41 102.47 -4.36C102.44 -4.41 102.4 -4.43 102.35 -4.42C102.3 -4.41 102.27 -4.43 102.23 -4.48C102.17 -4.52 102.02 -4.59 101.79 -4.66C101.76 -4.7 101.73 -4.72 101.7 -4.75C101.66 -4.77 101.56 -4.81 101.39 -4.87C101.36 -4.92 101.35 -4.97 101.36 -5.03C101.36 -5.08 101.36 -5.15 101.34 -5.23C101.33 -5.3 101.31 -5.37 101.3 -5.44C101.28 -5.5 101.27 -5.64 101.25 -5.86C101.25 -5.94 101.24 -6.01 101.21 -6.07C101.19 -6.13 101.18 -6.27 101.18 -6.47C101.18 -6.56 101.19 -6.65 101.2 -6.74C101.22 -6.82 101.23 -6.91 101.23 -6.98C101.23 -7.03 101.22 -7.08 101.21 -7.12C101.21 -7.17 101.22 -7.22 101.25 -7.27C101.22 -7.34 101.21 -7.42 101.21 -7.49C101.22 -7.56 101.23 -7.63 101.23 -7.69L101.23 -8.46L101.23 -8.91C101.24 -8.98 101.25 -9.06 101.26 -9.14C101.27 -9.22 101.27 -9.3 101.27 -9.4C101.27 -9.43 101.27 -9.46 101.26 -9.5C101.25 -9.54 101.26 -9.64 101.27 -9.8C101.27 -9.94 101.28 -10.08 101.29 -10.22C101.29 -10.36 101.28 -10.51 101.25 -10.66C101.3 -10.73 101.32 -10.79 101.31 -10.86C101.3 -10.93 101.3 -11.01 101.3 -11.09C101.31 -11.13 101.32 -11.18 101.33 -11.21C101.34 -11.25 101.35 -11.3 101.37 -11.34C101.37 -11.36 101.36 -11.37 101.36 -11.37C101.35 -11.37 101.35 -11.45 101.37 -11.6C101.38 -11.66 101.39 -11.73 101.38 -11.79C101.37 -11.85 101.37 -11.92 101.37 -12C101.37 -12.05 101.37 -12.09 101.38 -12.14C101.39 -12.19 101.39 -12.23 101.39 -12.28C101.39 -12.33 101.4 -12.37 101.41 -12.42C101.43 -12.47 101.44 -12.52 101.44 -12.56C101.45 -12.67 101.46 -12.79 101.46 -12.9C101.46 -13.02 101.41 -13.18 101.32 -13.38C101.32 -13.4 101.32 -13.41 101.31 -13.41C101.3 -13.41 101.27 -13.48 101.23 -13.64C101.16 -13.67 101.1 -13.69 101.04 -13.7C100.98 -13.71 100.91 -13.72 100.85 -13.73C100.76 -13.73 100.66 -13.73 100.57 -13.72C100.48 -13.71 100.38 -13.7 100.29 -13.69L100.04 -13.69C99.96 -13.69 99.9 -13.7 99.87 -13.71C99.79 -13.74 99.66 -13.76 99.47 -13.76C99.41 -13.76 99.3 -13.77 99.14 -13.8C99.08 -13.82 99.02 -13.82 98.96 -13.82C98.91 -13.81 98.79 -13.82 98.6 -13.85C98.54 -13.87 98.48 -13.87 98.43 -13.86C98.37 -13.86 98.32 -13.85 98.27 -13.85C98.24 -13.84 98.2 -13.83 98.16 -13.83L97.97 -13.83C97.84 -13.8 97.69 -13.8 97.5 -13.85C97.41 -13.87 97.33 -13.86 97.27 -13.83C97.2 -13.8 97.06 -13.77 96.84 -13.76C96.77 -13.74 96.7 -13.72 96.66 -13.7C96.61 -13.68 96.55 -13.67 96.47 -13.69L96.21 -13.34C96.2 -13.29 96.2 -13.23 96.21 -13.15C96.23 -13.07 96.23 -13.01 96.21 -12.96C96.23 -12.88 96.24 -12.81 96.25 -12.75L96.28 -12.47C96.31 -12.45 96.33 -12.35 96.33 -12.16L96.33 -12.07C96.33 -12.04 96.34 -11.95 96.38 -11.81C96.38 -11.75 96.37 -11.69 96.36 -11.62C96.36 -11.56 96.37 -11.44 96.4 -11.25C96.4 -11.23 96.39 -11.21 96.39 -11.19C96.38 -11.17 96.38 -11.09 96.38 -10.95C96.39 -10.87 96.41 -10.79 96.42 -10.72C96.44 -10.65 96.45 -10.55 96.45 -10.41L96.45 -9.82C96.45 -9.74 96.44 -9.67 96.43 -9.61C96.43 -9.55 96.42 -9.48 96.42 -9.4C96.42 -9.34 96.43 -9.28 96.43 -9.22C96.44 -9.17 96.45 -9.03 96.45 -8.81C96.43 -8.7 96.43 -8.61 96.43 -8.53C96.44 -8.45 96.44 -8.34 96.42 -8.18L96.45 -7.92C96.45 -7.89 96.44 -7.86 96.43 -7.84C96.43 -7.82 96.43 -7.74 96.45 -7.62C96.45 -7.49 96.44 -7.37 96.42 -7.25C96.41 -7.14 96.41 -6.95 96.42 -6.7L96.45 -6.3L96.45 -6C96.45 -5.95 96.45 -5.91 96.46 -5.87C96.46 -5.83 96.46 -5.79 96.45 -5.74C96.45 -5.71 96.44 -5.68 96.43 -5.65C96.43 -5.62 96.43 -5.52 96.45 -5.34C96.43 -5.31 96.43 -5.3 96.46 -5.3C96.48 -5.3 96.48 -5.23 96.45 -5.09C96.45 -5.04 96.45 -4.98 96.47 -4.92C96.48 -4.86 96.49 -4.81 96.49 -4.78C96.49 -4.77 96.49 -4.75 96.48 -4.73C96.47 -4.72 96.48 -4.62 96.49 -4.45C96.52 -4.39 96.56 -4.27 96.61 -4.08C96.59 -4.06 96.59 -3.97 96.61 -3.8C96.63 -3.72 96.63 -3.63 96.62 -3.54C96.61 -3.45 96.63 -3.37 96.66 -3.3C96.66 -3.27 96.67 -3.24 96.69 -3.21C96.71 -3.18 96.73 -3.12 96.75 -3.02L96.82 -2.77C96.79 -2.72 96.79 -2.67 96.81 -2.61C96.83 -2.56 96.84 -2.49 96.84 -2.41C96.91 -2.37 96.96 -2.31 97.01 -2.25C97.05 -2.19 97.09 -2.12 97.13 -2.06L97.21 -1.98C97.23 -1.96 97.28 -1.89 97.36 -1.78L97.43 -1.71L97.62 -1.52C97.63 -1.52 97.64 -1.51 97.64 -1.49C97.64 -1.46 97.7 -1.4 97.8 -1.29C97.84 -1.26 97.86 -1.22 97.89 -1.17C97.91 -1.12 97.96 -1.06 98.04 -0.98C98.07 -0.94 98.13 -0.85 98.23 -0.73L98.46 -0.54C98.52 -0.48 98.58 -0.43 98.64 -0.41C98.69 -0.39 98.74 -0.35 98.79 -0.3C98.8 -0.27 98.82 -0.26 98.82 -0.27C98.83 -0.28 98.89 -0.23 99 -0.14C99.03 -0.14 99.12 -0.1 99.26 -0.02C99.35 0.02 99.45 0.07 99.54 0.11C99.63 0.14 99.73 0.17 99.84 0.19C99.87 0.2 99.91 0.21 99.94 0.2C99.97 0.19 100.05 0.2 100.17 0.23C100.2 0.23 100.23 0.23 100.25 0.22C100.28 0.21 100.37 0.19 100.52 0.14C100.59 0.11 100.64 0.09 100.7 0.08C100.75 0.07 100.81 0.05 100.88 0.02C100.92 0.01 100.97 0 101.03 -0.01C101.08 -0.02 101.15 -0.05 101.23 -0.12C101.26 -0.13 101.3 -0.14 101.34 -0.15C101.39 -0.16 101.46 -0.18 101.55 -0.21L101.84 -0.33C101.88 -0.36 101.94 -0.39 102 -0.42C102.06 -0.45 102.2 -0.52 102.4 -0.63L102.5 -0.67C102.53 -0.68 102.57 -0.7 102.63 -0.75C102.73 -0.78 102.83 -0.84 102.94 -0.91C102.98 -0.93 103.07 -0.97 103.2 -1.03C103.23 -1.06 103.26 -1.08 103.29 -1.09C103.32 -1.1 103.39 -1.15 103.5 -1.24C103.53 -1.26 103.55 -1.27 103.57 -1.29C103.59 -1.3 103.67 -1.36 103.83 -1.45C103.86 -1.53 103.95 -1.61 104.11 -1.69C104.17 -1.73 104.23 -1.78 104.29 -1.82C104.34 -1.86 104.44 -1.94 104.58 -2.06L104.58 -1.66C104.58 -1.62 104.58 -1.57 104.59 -1.51C104.6 -1.46 104.59 -1.41 104.58 -1.36C104.58 -1.33 104.58 -1.28 104.59 -1.22C104.6 -1.16 104.59 -1.06 104.58 -0.94C104.59 -0.84 104.59 -0.76 104.57 -0.68C104.54 -0.6 104.53 -0.52 104.53 -0.42C104.53 -0.3 104.6 -0.14 104.74 0.05C104.79 0.05 104.83 0.06 104.86 0.08C104.89 0.11 104.97 0.14 105.09 0.19C105.14 0.22 105.19 0.23 105.23 0.23C105.28 0.23 105.41 0.27 105.61 0.33C105.66 0.34 105.7 0.35 105.74 0.34C105.78 0.33 105.91 0.34 106.13 0.38C106.16 0.38 106.18 0.37 106.2 0.36C106.21 0.36 106.28 0.35 106.41 0.35C106.53 0.37 106.64 0.37 106.75 0.36C106.85 0.36 106.99 0.35 107.18 0.35C107.4 0.34 107.64 0.34 107.91 0.35C108 0.35 108.07 0.35 108.13 0.34C108.18 0.33 108.31 0.3 108.52 0.26C108.56 0.18 108.6 0.12 108.62 0.07C108.64 0.02 108.66 -0.09 108.66 -0.28L108.66 -0.69C108.66 -0.82 108.63 -1 108.59 -1.22C108.57 -1.3 108.56 -1.38 108.56 -1.48C108.56 -1.57 108.55 -1.66 108.54 -1.73C108.52 -1.87 108.51 -2.01 108.5 -2.14C108.5 -2.28 108.49 -2.42 108.49 -2.58L108.49 -3.21C108.49 -3.37 108.5 -3.51 108.5 -3.64C108.51 -3.78 108.5 -3.9 108.47 -4.01C108.5 -4.04 108.51 -4.07 108.5 -4.11C108.5 -4.15 108.5 -4.23 108.52 -4.36C108.52 -4.44 108.52 -4.52 108.53 -4.59C108.54 -4.67 108.52 -4.8 108.47 -4.99C108.47 -5.02 108.47 -5.04 108.48 -5.05C108.49 -5.06 108.48 -5.12 108.47 -5.25L108.47 -5.55C108.47 -5.68 108.48 -5.77 108.49 -5.81C108.52 -5.91 108.52 -6.09 108.47 -6.35C108.47 -6.38 108.47 -6.41 108.48 -6.45C108.49 -6.48 108.5 -6.54 108.52 -6.63C108.52 -6.66 108.51 -6.68 108.5 -6.69C108.5 -6.7 108.49 -6.77 108.49 -6.91C108.49 -6.96 108.5 -7.01 108.5 -7.05C108.51 -7.1 108.52 -7.15 108.52 -7.2C108.52 -7.3 108.52 -7.42 108.54 -7.55C108.54 -7.58 108.54 -7.6 108.53 -7.62C108.52 -7.63 108.52 -7.7 108.52 -7.83C108.5 -7.86 108.5 -7.89 108.5 -7.91C108.51 -7.93 108.52 -8.01 108.52 -8.13C108.5 -8.24 108.5 -8.37 108.53 -8.51C108.55 -8.65 108.55 -8.76 108.52 -8.84C108.52 -8.87 108.51 -8.88 108.5 -8.88C108.5 -8.88 108.48 -8.97 108.47 -9.14C108.48 -9.17 108.5 -9.26 108.52 -9.4C108.52 -9.49 108.52 -9.58 108.53 -9.67C108.54 -9.75 108.54 -9.88 108.54 -10.05L108.56 -10.45C108.56 -10.61 108.57 -10.74 108.59 -10.85C108.6 -10.96 108.59 -11.06 108.56 -11.16C108.61 -11.25 108.62 -11.35 108.59 -11.46C108.59 -11.49 108.59 -11.51 108.6 -11.52C108.61 -11.53 108.61 -11.59 108.61 -11.72L108.61 -11.87L108.61 -12.07C108.61 -12.12 108.61 -12.17 108.62 -12.22C108.63 -12.28 108.63 -12.33 108.63 -12.37C108.65 -12.42 108.65 -12.47 108.64 -12.52C108.64 -12.56 108.65 -12.61 108.68 -12.66C108.68 -12.78 108.7 -12.93 108.73 -13.1C108.76 -13.27 108.74 -13.48 108.68 -13.73Z M116.58 -18.12L116.44 -18.14C116.41 -18.2 116.36 -18.23 116.31 -18.22C116.25 -18.21 116.19 -18.22 116.11 -18.23C116.08 -18.23 116.04 -18.24 115.98 -18.25C115.93 -18.25 115.88 -18.26 115.85 -18.26C115.79 -18.26 115.73 -18.25 115.69 -18.25C115.64 -18.24 115.6 -18.25 115.57 -18.28C115.54 -18.25 115.51 -18.24 115.49 -18.25C115.46 -18.25 115.39 -18.27 115.27 -18.28C115.23 -18.25 115.17 -18.23 115.07 -18.23L114.82 -18.23C114.77 -18.22 114.71 -18.21 114.64 -18.21C114.57 -18.21 114.47 -18.22 114.33 -18.23C114.3 -18.25 114.27 -18.25 114.23 -18.25C114.2 -18.24 114.14 -18.23 114.05 -18.23C114.02 -18.25 113.99 -18.25 113.98 -18.25C113.96 -18.24 113.9 -18.24 113.79 -18.26C113.73 -18.26 113.62 -18.25 113.46 -18.23C113.4 -18.25 113.34 -18.27 113.3 -18.28L113.16 -18.33C113.09 -18.33 113.03 -18.32 112.96 -18.32C112.89 -18.31 112.81 -18.31 112.73 -18.33C112.69 -18.33 112.64 -18.33 112.59 -18.34C112.55 -18.35 112.51 -18.34 112.48 -18.33C112.38 -18.31 112.26 -18.3 112.1 -18.29C111.95 -18.29 111.81 -18.3 111.7 -18.33C111.67 -18.27 111.62 -18.21 111.56 -18.16C111.5 -18.12 111.46 -18.06 111.45 -18C111.43 -17.97 111.43 -17.94 111.43 -17.91C111.44 -17.88 111.44 -17.8 111.42 -17.67C111.42 -17.66 111.43 -17.61 111.45 -17.53C111.46 -17.45 111.47 -17.4 111.47 -17.37C111.47 -17.32 111.48 -17.28 111.49 -17.24C111.51 -17.2 111.52 -17.15 111.54 -17.09C111.55 -17.02 111.56 -16.96 111.55 -16.91C111.54 -16.86 111.55 -16.8 111.56 -16.73C111.58 -16.67 111.6 -16.62 111.62 -16.57C111.64 -16.52 111.65 -16.47 111.63 -16.41C111.66 -16.31 111.67 -16.21 111.66 -16.1C111.66 -16.09 111.67 -16 111.7 -15.84C111.72 -15.81 111.72 -15.79 111.71 -15.76C111.71 -15.74 111.7 -15.64 111.7 -15.47L111.7 -15.09C111.72 -14.98 111.72 -14.85 111.71 -14.68C111.71 -14.52 111.71 -14.37 111.73 -14.25C111.76 -14.16 111.77 -14.07 111.75 -13.99C111.69 -14.01 111.63 -14.01 111.59 -13.99C111.54 -13.98 111.5 -13.98 111.47 -13.99C111.44 -13.99 111.41 -14 111.38 -14.02C111.34 -14.03 111.23 -14.04 111.05 -14.04C110.92 -14.1 110.77 -14.13 110.6 -14.13L110.3 -14.16C110.2 -14.16 110.11 -14.14 110.03 -14.11C109.94 -14.08 109.86 -14.08 109.78 -14.11L109.48 -13.78C109.46 -13.75 109.45 -13.73 109.43 -13.73C109.41 -13.73 109.39 -13.66 109.36 -13.52C109.38 -13.45 109.38 -13.39 109.37 -13.36C109.36 -13.33 109.37 -13.23 109.38 -13.08C109.38 -13.05 109.38 -13.02 109.36 -13.01C109.34 -12.99 109.34 -12.91 109.36 -12.75C109.36 -12.64 109.36 -12.53 109.37 -12.41C109.38 -12.29 109.39 -12.17 109.41 -12.05L109.41 -11.93C109.41 -11.88 109.41 -11.8 109.43 -11.67C109.43 -11.62 109.43 -11.59 109.42 -11.58C109.41 -11.56 109.43 -11.48 109.48 -11.32C109.49 -11.29 109.5 -11.24 109.5 -11.17C109.5 -11.1 109.49 -11.03 109.48 -10.97C109.49 -10.89 109.5 -10.82 109.5 -10.76L109.5 -10.55C109.5 -10.44 109.49 -10.34 109.46 -10.25C109.44 -10.17 109.45 -10.09 109.48 -10.01C109.51 -9.93 109.55 -9.87 109.59 -9.83C109.64 -9.79 109.68 -9.73 109.71 -9.66C109.77 -9.62 109.88 -9.56 110.02 -9.47C110.06 -9.45 110.11 -9.44 110.17 -9.42C110.22 -9.41 110.3 -9.4 110.39 -9.4C110.42 -9.4 110.46 -9.39 110.52 -9.39C110.57 -9.38 110.64 -9.37 110.72 -9.37C110.89 -9.39 111.05 -9.41 111.21 -9.45C111.37 -9.48 111.51 -9.51 111.63 -9.54C111.65 -9.45 111.66 -9.36 111.66 -9.27C111.66 -9.18 111.67 -9.03 111.7 -8.81L111.7 -8.48C111.7 -8.42 111.7 -8.36 111.69 -8.31C111.68 -8.25 111.69 -8.16 111.7 -8.02C111.7 -7.95 111.7 -7.89 111.69 -7.84C111.68 -7.79 111.68 -7.73 111.68 -7.66L111.68 -7.27C111.68 -7.22 111.67 -7.13 111.66 -7.01L111.66 -6.28C111.66 -6.2 111.66 -6.13 111.67 -6.06C111.68 -5.99 111.67 -5.91 111.66 -5.84C111.66 -5.76 111.65 -5.69 111.63 -5.62C111.62 -5.56 111.61 -5.49 111.61 -5.41C111.61 -5.35 111.61 -5.29 111.62 -5.24C111.63 -5.18 111.63 -5.12 111.63 -5.04C111.62 -4.96 111.6 -4.88 111.57 -4.79C111.55 -4.71 111.56 -4.62 111.61 -4.55C111.58 -4.42 111.58 -4.3 111.61 -4.2C111.61 -4.16 111.61 -4.13 111.6 -4.1C111.59 -4.07 111.62 -3.98 111.68 -3.84L111.7 -3.59C111.73 -3.49 111.75 -3.41 111.76 -3.33C111.77 -3.25 111.78 -3.18 111.8 -3.12C111.81 -3.04 111.82 -2.97 111.83 -2.92C111.84 -2.86 111.85 -2.8 111.87 -2.72C111.9 -2.64 111.93 -2.55 111.95 -2.45C111.97 -2.35 112.03 -2.18 112.13 -1.95C112.16 -1.9 112.18 -1.85 112.2 -1.79C112.21 -1.74 112.23 -1.7 112.27 -1.66C112.3 -1.63 112.32 -1.61 112.32 -1.59C112.33 -1.58 112.4 -1.48 112.52 -1.31C112.54 -1.25 112.56 -1.21 112.59 -1.18C112.62 -1.16 112.7 -1.09 112.8 -0.96C112.8 -0.93 112.87 -0.86 112.99 -0.75C113.02 -0.73 113.04 -0.72 113.04 -0.7C113.04 -0.69 113.12 -0.65 113.27 -0.59C113.3 -0.48 113.45 -0.37 113.7 -0.26C113.73 -0.24 113.75 -0.23 113.75 -0.21C113.76 -0.2 113.86 -0.17 114.05 -0.14L114.33 0C114.34 0 114.36 0 114.36 0.01C114.37 0.02 114.45 0.06 114.61 0.14C114.72 0.16 114.82 0.17 114.93 0.18C115.03 0.18 115.13 0.2 115.22 0.21C115.3 0.23 115.4 0.24 115.54 0.25C115.67 0.25 115.77 0.27 115.85 0.28C115.91 0.31 116.03 0.33 116.2 0.33C116.25 0.33 116.34 0.34 116.46 0.35C116.57 0.35 116.68 0.37 116.79 0.4C116.8 0.4 116.82 0.39 116.84 0.39C116.85 0.38 116.92 0.38 117.05 0.38C117.2 0.38 117.33 0.37 117.42 0.36C117.52 0.36 117.61 0.36 117.7 0.38C117.77 0.31 117.87 0.28 118.01 0.28C118.04 0.25 118.08 0.23 118.13 0.21C118.17 0.2 118.25 0.18 118.36 0.16C118.39 0.13 118.41 0.11 118.43 0.11C118.45 0.1 118.52 0.03 118.66 -0.09C118.68 -0.11 118.73 -0.2 118.83 -0.37L118.92 -0.7C118.95 -0.78 118.97 -0.85 118.98 -0.91C118.99 -0.98 119.02 -1.09 119.06 -1.27C119.08 -1.28 119.08 -1.29 119.07 -1.3C119.07 -1.31 119.09 -1.38 119.13 -1.52C119.15 -1.62 119.19 -1.77 119.25 -1.99C119.3 -2.05 119.33 -2.12 119.34 -2.18C119.36 -2.24 119.38 -2.31 119.41 -2.39C119.45 -2.48 119.47 -2.57 119.48 -2.66C119.5 -2.75 119.55 -2.87 119.63 -3.05C119.64 -3.09 119.65 -3.14 119.66 -3.19C119.67 -3.23 119.68 -3.27 119.7 -3.3C119.74 -3.4 119.78 -3.49 119.81 -3.59C119.84 -3.66 119.86 -3.73 119.86 -3.8L119.86 -4.1C119.89 -4.15 119.91 -4.19 119.93 -4.22C119.95 -4.25 119.94 -4.3 119.91 -4.38C119.91 -4.41 119.89 -4.43 119.87 -4.43C119.85 -4.43 119.75 -4.48 119.58 -4.57C119.55 -4.57 119.52 -4.57 119.51 -4.56C119.49 -4.55 119.43 -4.55 119.32 -4.55C119.26 -4.53 119.2 -4.51 119.14 -4.48C119.09 -4.45 118.98 -4.42 118.8 -4.41C118.77 -4.41 118.75 -4.4 118.73 -4.38C118.72 -4.37 118.65 -4.35 118.52 -4.34L118.22 -4.29C118.09 -4.29 117.99 -4.28 117.91 -4.27C117.74 -4.25 117.59 -4.25 117.47 -4.27L117.26 -4.34C117.21 -4.35 117.15 -4.36 117.07 -4.36C117.01 -4.44 116.87 -4.51 116.65 -4.57C116.63 -4.6 116.61 -4.63 116.59 -4.66C116.57 -4.7 116.5 -4.73 116.39 -4.78C116.39 -4.83 116.38 -4.87 116.37 -4.92L116.32 -5.06C116.32 -5.09 116.32 -5.12 116.31 -5.13C116.3 -5.15 116.3 -5.23 116.3 -5.37C116.28 -5.41 116.27 -5.46 116.25 -5.52C116.23 -5.57 116.22 -5.7 116.2 -5.91C116.2 -5.94 116.21 -5.97 116.23 -6.01C116.24 -6.05 116.24 -6.16 116.23 -6.35C116.16 -6.51 116.14 -6.66 116.17 -6.81C116.19 -6.96 116.2 -7.11 116.18 -7.27C116.18 -7.31 116.18 -7.36 116.17 -7.42C116.16 -7.47 116.16 -7.59 116.16 -7.78C116.17 -7.94 116.18 -8.07 116.19 -8.19C116.2 -8.31 116.2 -8.44 116.2 -8.58L116.2 -9C116.2 -9.08 116.2 -9.15 116.19 -9.21C116.18 -9.27 116.2 -9.34 116.23 -9.4C116.3 -9.4 116.38 -9.41 116.44 -9.42C116.5 -9.44 116.64 -9.41 116.86 -9.35L117.45 -9.35C117.66 -9.32 117.85 -9.33 118.01 -9.37C118.07 -9.34 118.12 -9.34 118.15 -9.36C118.18 -9.39 118.23 -9.41 118.29 -9.42C118.27 -9.48 118.29 -9.53 118.32 -9.56C118.36 -9.59 118.38 -9.64 118.38 -9.7C118.41 -9.72 118.43 -9.74 118.42 -9.76C118.41 -9.79 118.44 -9.85 118.5 -9.96C118.48 -10.04 118.48 -10.11 118.49 -10.16C118.5 -10.21 118.51 -10.27 118.52 -10.34C118.55 -10.49 118.56 -10.66 118.54 -10.85C118.51 -11.04 118.52 -11.29 118.57 -11.6C118.57 -11.68 118.55 -11.78 118.52 -11.91C118.55 -11.97 118.57 -12.04 118.56 -12.13C118.55 -12.21 118.55 -12.3 118.57 -12.37C118.57 -12.41 118.57 -12.43 118.58 -12.46C118.59 -12.48 118.6 -12.55 118.62 -12.68C118.62 -12.74 118.62 -12.8 118.63 -12.84C118.64 -12.89 118.63 -12.97 118.59 -13.08C118.59 -13.11 118.6 -13.13 118.62 -13.15C118.63 -13.16 118.59 -13.25 118.5 -13.41C118.5 -13.5 118.45 -13.63 118.34 -13.8C118.29 -13.88 118.23 -13.93 118.15 -13.93C118.07 -13.94 117.99 -13.96 117.91 -13.99C117.79 -13.95 117.65 -13.93 117.5 -13.96C117.36 -13.98 117.2 -13.98 117.02 -13.95C116.98 -13.95 116.94 -13.94 116.91 -13.92C116.88 -13.91 116.82 -13.9 116.74 -13.9C116.71 -13.9 116.67 -13.89 116.61 -13.87C116.56 -13.86 116.52 -13.87 116.48 -13.9C116.45 -13.99 116.48 -14.09 116.55 -14.18C116.52 -14.51 116.52 -14.84 116.55 -15.19C116.55 -15.27 116.56 -15.34 116.58 -15.41C116.59 -15.48 116.6 -15.55 116.6 -15.63C116.6 -15.66 116.6 -15.7 116.59 -15.75C116.58 -15.8 116.58 -15.84 116.58 -15.89C116.58 -15.94 116.59 -15.99 116.6 -16.04C116.62 -16.1 116.62 -16.16 116.6 -16.24C116.59 -16.34 116.59 -16.45 116.6 -16.57C116.62 -16.7 116.63 -16.87 116.65 -17.11L116.65 -17.39C116.68 -17.52 116.68 -17.67 116.65 -17.86C116.63 -17.92 116.63 -17.97 116.63 -18.01C116.63 -18.05 116.61 -18.09 116.58 -18.12Z M128.06 -10.85C128.08 -10.88 128.08 -10.93 128.07 -10.98C128.07 -11.04 128.05 -11.11 128.04 -11.2C128.02 -11.23 128.02 -11.26 128.02 -11.27C128.02 -11.29 128 -11.35 127.97 -11.46C127.94 -11.54 127.91 -11.6 127.9 -11.65C127.88 -11.7 127.83 -11.82 127.73 -12.02C127.72 -12.05 127.71 -12.09 127.71 -12.12C127.71 -12.15 127.69 -12.21 127.64 -12.3C127.63 -12.34 127.62 -12.36 127.62 -12.37C127.62 -12.39 127.58 -12.49 127.5 -12.68C127.47 -12.76 127.43 -12.83 127.38 -12.89C127.34 -12.95 127.28 -13.07 127.22 -13.24L126.98 -13.64L126.82 -13.99C126.82 -14.04 126.78 -14.13 126.7 -14.25C126.67 -14.3 126.64 -14.35 126.62 -14.41C126.6 -14.48 126.55 -14.59 126.49 -14.74C126.45 -14.77 126.41 -14.81 126.38 -14.85C126.34 -14.89 126.3 -14.92 126.23 -14.95L126.06 -15.06C126.02 -15.08 125.96 -15.1 125.88 -15.12C125.8 -15.13 125.72 -15.15 125.63 -15.16C125.59 -15.16 125.57 -15.16 125.55 -15.14C125.54 -15.12 125.44 -15.12 125.25 -15.14C125.19 -15.12 125.13 -15.1 125.07 -15.07C125.02 -15.04 124.89 -14.99 124.69 -14.93C124.62 -14.87 124.52 -14.81 124.38 -14.77C124.37 -14.77 124.35 -14.76 124.32 -14.75C124.3 -14.75 124.23 -14.72 124.1 -14.67C124.07 -14.64 124.04 -14.62 124 -14.62C123.96 -14.62 123.9 -14.58 123.82 -14.48C123.7 -14.44 123.56 -14.37 123.42 -14.27C123.39 -14.27 123.29 -14.24 123.12 -14.18C123.09 -14.16 123.05 -14.14 123.02 -14.12C122.99 -14.1 122.92 -14.04 122.81 -13.95C122.8 -13.95 122.72 -13.9 122.58 -13.8C122.55 -13.79 122.52 -13.77 122.51 -13.76C122.49 -13.74 122.42 -13.7 122.3 -13.62C122.2 -13.55 122.12 -13.47 122.04 -13.36C122.02 -13.33 122.01 -13.31 121.99 -13.3C121.98 -13.29 121.92 -13.25 121.83 -13.17L121.55 -12.84C121.48 -12.84 121.44 -12.82 121.41 -12.76C121.38 -12.71 121.32 -12.66 121.24 -12.61C121.2 -12.56 121.11 -12.46 120.98 -12.3L120.9 -12.22L120.77 -12.09C120.74 -12.05 120.71 -12.01 120.69 -11.98C120.67 -11.95 120.62 -11.87 120.54 -11.74C120.48 -11.68 120.41 -11.54 120.33 -11.32C120.3 -11.23 120.27 -11.13 120.26 -11.04C120.24 -10.95 120.23 -10.86 120.21 -10.78C120.18 -10.72 120.17 -10.6 120.19 -10.43C120.19 -10.32 120.18 -10.22 120.18 -10.14C120.17 -10.05 120.19 -9.93 120.23 -9.77C120.25 -9.74 120.25 -9.72 120.25 -9.7C120.24 -9.69 120.28 -9.6 120.38 -9.45C120.53 -9.32 120.62 -9.15 120.63 -8.93C120.71 -8.85 120.78 -8.77 120.83 -8.67C120.89 -8.58 120.95 -8.49 121.03 -8.41C121.06 -8.37 121.09 -8.33 121.13 -8.3C121.16 -8.27 121.23 -8.18 121.34 -8.04C121.35 -8.01 121.36 -7.98 121.37 -7.95C121.38 -7.91 121.45 -7.84 121.59 -7.73C121.59 -7.72 121.6 -7.71 121.61 -7.71C121.61 -7.71 121.66 -7.63 121.73 -7.48L121.83 -7.38C121.86 -7.35 121.89 -7.31 121.92 -7.27C121.94 -7.23 121.96 -7.21 121.99 -7.2C122.02 -7.18 122.09 -7.12 122.18 -7.01C122.21 -6.93 122.29 -6.83 122.41 -6.7C122.48 -6.67 122.52 -6.64 122.55 -6.6C122.59 -6.56 122.66 -6.45 122.79 -6.28C122.77 -6.2 122.79 -6.14 122.84 -6.09C122.88 -6.05 122.92 -5.99 122.95 -5.93C122.98 -5.8 123 -5.71 123 -5.65C123.02 -5.54 123 -5.45 122.96 -5.39C122.93 -5.33 122.87 -5.19 122.79 -4.97C122.76 -4.98 122.74 -4.98 122.73 -4.95C122.72 -4.91 122.67 -4.85 122.58 -4.76C122.55 -4.71 122.52 -4.67 122.48 -4.63C122.45 -4.59 122.41 -4.55 122.37 -4.52C122.32 -4.49 122.28 -4.47 122.24 -4.46C122.2 -4.46 122.16 -4.44 122.13 -4.41C122.09 -4.39 122.05 -4.37 122.02 -4.35C121.98 -4.32 121.88 -4.27 121.71 -4.17C121.63 -4.16 121.57 -4.13 121.54 -4.1C121.5 -4.07 121.39 -4.03 121.22 -3.98C121.17 -3.95 121.12 -3.93 121.05 -3.91C120.99 -3.9 120.87 -3.85 120.68 -3.77C120.6 -3.74 120.53 -3.69 120.47 -3.61C120.45 -3.58 120.45 -3.55 120.45 -3.53C120.45 -3.5 120.43 -3.44 120.4 -3.33C120.38 -3.3 120.37 -3.27 120.35 -3.26C120.34 -3.24 120.34 -3.17 120.38 -3.05C120.38 -3 120.41 -2.9 120.49 -2.74C120.51 -2.7 120.55 -2.6 120.63 -2.46C120.62 -2.43 120.62 -2.41 120.63 -2.39C120.65 -2.38 120.7 -2.3 120.8 -2.16L120.96 -1.9C121.04 -1.82 121.1 -1.72 121.15 -1.61C121.2 -1.49 121.27 -1.39 121.36 -1.31C121.37 -1.27 121.39 -1.23 121.42 -1.2C121.44 -1.16 121.47 -1.12 121.5 -1.08C121.52 -1.06 121.52 -1.05 121.52 -1.03C121.52 -1.02 121.56 -0.94 121.64 -0.8C121.72 -0.72 121.8 -0.58 121.9 -0.37L122.06 -0.05C122.09 -0.05 122.12 -0.03 122.14 0C122.17 0.03 122.21 0.09 122.27 0.16C122.3 0.24 122.34 0.32 122.39 0.4C122.45 0.43 122.5 0.48 122.54 0.54C122.58 0.6 122.62 0.66 122.65 0.73C122.73 0.74 122.79 0.77 122.82 0.8C122.86 0.83 122.94 0.84 123.05 0.84C123.08 0.84 123.11 0.83 123.15 0.81C123.19 0.79 123.26 0.76 123.35 0.73L123.45 0.68C123.48 0.66 123.54 0.64 123.63 0.61L123.73 0.52C123.76 0.48 123.86 0.45 124.03 0.42C124.06 0.42 124.11 0.41 124.16 0.38C124.21 0.34 124.3 0.27 124.43 0.16C124.51 0.13 124.58 0.09 124.64 0.04C124.7 -0.02 124.79 -0.05 124.9 -0.07C124.91 -0.13 125.01 -0.21 125.18 -0.3C125.21 -0.34 125.24 -0.36 125.26 -0.36L125.44 -0.42C125.45 -0.44 125.46 -0.46 125.47 -0.49C125.48 -0.52 125.53 -0.56 125.63 -0.61C125.67 -0.66 125.72 -0.7 125.77 -0.74C125.81 -0.78 125.86 -0.82 125.91 -0.87C126.03 -0.91 126.13 -0.99 126.2 -1.09C126.27 -1.19 126.38 -1.26 126.52 -1.29C126.55 -1.35 126.59 -1.39 126.63 -1.42C126.68 -1.44 126.76 -1.5 126.87 -1.59C126.95 -1.75 127.06 -1.85 127.22 -1.9C127.25 -1.96 127.29 -2.01 127.35 -2.04C127.4 -2.07 127.45 -2.11 127.48 -2.16C127.51 -2.19 127.52 -2.21 127.52 -2.23C127.52 -2.24 127.57 -2.32 127.66 -2.46C127.7 -2.45 127.71 -2.45 127.72 -2.48C127.73 -2.52 127.8 -2.58 127.92 -2.67C127.92 -2.73 127.94 -2.78 127.98 -2.8C128.02 -2.82 128.09 -2.92 128.18 -3.09C128.24 -3.34 128.32 -3.59 128.41 -3.84L128.37 -4.1C128.35 -4.15 128.32 -4.23 128.27 -4.36C128.26 -4.41 128.25 -4.46 128.26 -4.51C128.27 -4.57 128.23 -4.69 128.16 -4.87L128.09 -5.18C128.09 -5.21 128.07 -5.23 128.05 -5.25C128.03 -5.27 127.99 -5.34 127.95 -5.48C127.93 -5.52 127.91 -5.54 127.9 -5.57C127.88 -5.59 127.86 -5.64 127.83 -5.72L127.57 -6.05L127.38 -6.33C127.35 -6.36 127.32 -6.39 127.28 -6.42C127.24 -6.45 127.2 -6.49 127.17 -6.54C127.14 -6.65 127.05 -6.77 126.91 -6.91C126.9 -6.91 126.84 -6.98 126.75 -7.12C126.72 -7.16 126.66 -7.24 126.59 -7.38C126.52 -7.43 126.47 -7.49 126.42 -7.57C126.38 -7.65 126.31 -7.7 126.23 -7.73C126.2 -7.81 126.17 -7.9 126.14 -7.99C126.11 -8.09 126.07 -8.16 126.02 -8.23C125.99 -8.26 125.96 -8.29 125.94 -8.33C125.92 -8.37 125.89 -8.41 125.86 -8.44C125.87 -8.52 125.87 -8.58 125.86 -8.62C125.84 -8.67 125.84 -8.71 125.84 -8.74C125.82 -8.77 125.81 -8.81 125.81 -8.85C125.81 -8.89 125.79 -8.95 125.74 -9.02C125.74 -9.16 125.79 -9.28 125.88 -9.37C125.98 -9.47 126.09 -9.64 126.23 -9.89C126.33 -9.95 126.45 -10.05 126.59 -10.17C126.65 -10.23 126.78 -10.32 126.98 -10.43C127.08 -10.48 127.18 -10.51 127.29 -10.52C127.4 -10.54 127.58 -10.59 127.83 -10.69C127.83 -10.7 127.83 -10.71 127.84 -10.72C127.85 -10.73 127.92 -10.77 128.06 -10.85Z"/></g></g></svg>