<svg xmlns="http://www.w3.org/2000/svg" version="1.1" xlink="http://www.w3.org/1999/xlink" xmlns:svgjs="http://svgjs.com/svgjs" width="300" height="58.862858697245215"><defs id="SvgjsDefs1082"/><g id="SvgjsG1083" transform="scale(1.0869847070897964)" opacity="1"><g id="SvgjsG1084" class="MbxOVjQWP" transform="translate(148.16402139172502, 0) scale(1)" light-content="false" fill="#b41f00"><path d="M0 0 h 127.82882196960932 v 54.15242580076385 h -127.82882196960932 Z"/></g><g id="SvgjsG1085" class="text" transform="translate(210.89402383313126, 43.68324654123855) scale(1)" light-content="true" fill="#ffffff"><path d="M-45.29 0L-45.29 -12.98L-35.55 -12.98L-35.55 -19.49L-45.29 -19.49L-45.29 -25.99L-29.04 -25.99L-29.04 -32.49L-51.79 -32.49L-51.79 0Z M-14.57 0L-14.57 -32.49L-21.07 -32.49L-21.07 0Z M2.6 -25.99L9.11 -25.99C10 -25.99 10.84 -25.82 11.62 -25.48C12.41 -25.14 13.09 -24.68 13.68 -24.09C14.27 -23.5 14.74 -22.81 15.08 -22.01C15.42 -21.22 15.59 -20.38 15.59 -19.49C15.59 -18.6 15.42 -17.75 15.08 -16.96C14.74 -16.17 14.27 -15.48 13.68 -14.89C13.09 -14.3 12.41 -13.83 11.62 -13.49C10.84 -13.15 10 -12.98 9.11 -12.98L2.6 -12.98ZM2.6 0L2.6 -6.5L9.88 -6.55L12.71 0L19.62 0L16.02 -8.5C16.95 -9.09 17.8 -9.78 18.56 -10.58C19.31 -11.38 19.95 -12.26 20.47 -13.21C20.99 -14.16 21.39 -15.17 21.67 -16.22C21.95 -17.28 22.09 -18.37 22.09 -19.49C22.09 -20.68 21.94 -21.83 21.63 -22.93C21.32 -24.03 20.88 -25.07 20.31 -26.04C19.75 -27 19.07 -27.88 18.27 -28.68C17.48 -29.47 16.6 -30.15 15.64 -30.71C14.68 -31.28 13.65 -31.72 12.55 -32.03C11.45 -32.34 10.3 -32.49 9.11 -32.49L-3.9 -32.49L-3.9 0Z M53.26 0L53.26 -6.5L37.49 -6.5L37.49 -12.98L48.17 -12.98L48.17 -19.49L37.49 -19.49L37.49 -25.99L53.26 -25.99L53.26 -32.49L30.99 -32.49L30.99 0Z"/></g><g id="SvgjsG1086" class="text" transform="translate(70.12, 42.983246693826445) scale(1)" light-content="false" fill="#0a0a0a"><path d="M-42.41 -3.33L-45.86 -9C-46.81 -7.97 -47.93 -7.18 -49.23 -6.63C-50.53 -6.08 -51.89 -5.8 -53.31 -5.8C-54.75 -5.8 -56.09 -6.07 -57.34 -6.62C-58.6 -7.16 -59.69 -7.9 -60.63 -8.84C-61.57 -9.77 -62.31 -10.87 -62.85 -12.11C-63.39 -13.36 -63.67 -14.69 -63.67 -16.11C-63.67 -17.53 -63.39 -18.87 -62.85 -20.13C-62.31 -21.39 -61.57 -22.49 -60.63 -23.42C-59.69 -24.35 -58.6 -25.08 -57.34 -25.63C-56.09 -26.17 -54.75 -26.44 -53.31 -26.44C-51.89 -26.44 -50.53 -26.17 -49.23 -25.62C-47.93 -25.06 -46.81 -24.28 -45.86 -23.25L-42.41 -28.91C-43.92 -30.23 -45.61 -31.23 -47.49 -31.92C-49.36 -32.6 -51.3 -32.95 -53.31 -32.95C-54.85 -32.95 -56.34 -32.75 -57.76 -32.35C-59.19 -31.95 -60.53 -31.38 -61.77 -30.65C-63.02 -29.91 -64.16 -29.03 -65.18 -28.01C-66.21 -26.98 -67.09 -25.84 -67.82 -24.6C-68.56 -23.35 -69.12 -22.01 -69.52 -20.57C-69.92 -19.14 -70.12 -17.65 -70.12 -16.11C-70.12 -14.57 -69.92 -13.09 -69.52 -11.66C-69.12 -10.23 -68.56 -8.89 -67.82 -7.65C-67.09 -6.4 -66.21 -5.26 -65.18 -4.24C-64.16 -3.21 -63.02 -2.33 -61.77 -1.6C-60.53 -0.86 -59.19 -0.3 -57.76 0.1C-56.34 0.5 -54.85 0.7 -53.31 0.7C-51.3 0.7 -49.36 0.35 -47.49 -0.34C-45.61 -1.03 -43.92 -2.03 -42.41 -3.33Z M-14.88 -12.98L-27.89 -12.98L-27.89 -19.49C-27.89 -20.38 -27.72 -21.22 -27.38 -22.01C-27.04 -22.81 -26.58 -23.5 -25.99 -24.09C-25.4 -24.68 -24.71 -25.14 -23.91 -25.48C-23.12 -25.82 -22.28 -25.99 -21.39 -25.99C-20.5 -25.99 -19.65 -25.82 -18.86 -25.48C-18.07 -25.14 -17.38 -24.68 -16.79 -24.09C-16.2 -23.5 -15.73 -22.81 -15.39 -22.01C-15.05 -21.22 -14.88 -20.38 -14.88 -19.49ZM-8.38 0L-8.38 -19.49C-8.38 -21.28 -8.72 -22.97 -9.4 -24.55C-10.08 -26.13 -11.01 -27.51 -12.19 -28.69C-13.37 -29.86 -14.75 -30.79 -16.32 -31.47C-17.9 -32.15 -19.59 -32.49 -21.39 -32.49C-23.19 -32.49 -24.87 -32.15 -26.45 -31.47C-28.03 -30.79 -29.41 -29.86 -30.58 -28.69C-31.75 -27.51 -32.67 -26.13 -33.35 -24.55C-34.03 -22.97 -34.37 -21.28 -34.37 -19.49L-34.37 0L-27.89 0L-27.89 -6.5L-14.88 -6.5L-14.88 0Z M34.15 0L34.15 -23.2C34.15 -24.55 33.89 -25.81 33.39 -27C32.88 -28.18 32.19 -29.22 31.3 -30.1C30.42 -30.99 29.38 -31.68 28.2 -32.19C27.01 -32.69 25.75 -32.95 24.4 -32.95C23.19 -32.95 22.03 -32.73 20.92 -32.3C19.81 -31.87 18.81 -31.25 17.92 -30.43C17.03 -31.25 16.03 -31.87 14.91 -32.3C13.79 -32.73 12.63 -32.95 11.42 -32.95C10.07 -32.95 8.81 -32.69 7.62 -32.19C6.44 -31.68 5.4 -30.99 4.52 -30.1C3.63 -29.22 2.94 -28.18 2.43 -27C1.93 -25.81 1.67 -24.55 1.67 -23.2L1.67 0L8.18 0L8.18 -23.2C8.18 -23.66 8.26 -24.08 8.43 -24.47C8.59 -24.86 8.82 -25.21 9.12 -25.5C9.41 -25.8 9.76 -26.03 10.15 -26.19C10.54 -26.36 10.96 -26.44 11.42 -26.44C11.87 -26.44 12.29 -26.36 12.69 -26.19C13.08 -26.03 13.42 -25.8 13.72 -25.5C14.01 -25.21 14.24 -24.86 14.41 -24.47C14.58 -24.08 14.66 -23.66 14.66 -23.2L14.66 0L21.16 0L21.16 -23.2C21.16 -23.66 21.24 -24.08 21.41 -24.47C21.58 -24.86 21.81 -25.21 22.1 -25.5C22.4 -25.8 22.74 -26.03 23.13 -26.19C23.53 -26.36 23.95 -26.44 24.4 -26.44C24.85 -26.44 25.28 -26.36 25.67 -26.19C26.06 -26.03 26.41 -25.8 26.7 -25.5C27 -25.21 27.23 -24.86 27.4 -24.47C27.58 -24.08 27.66 -23.66 27.66 -23.2L27.66 0Z M51.09 -25.99L57.59 -25.99C58.48 -25.99 59.32 -25.82 60.11 -25.48C60.89 -25.14 61.58 -24.68 62.17 -24.09C62.76 -23.5 63.22 -22.81 63.56 -22.01C63.9 -21.22 64.07 -20.38 64.07 -19.49C64.07 -18.6 63.9 -17.75 63.56 -16.96C63.22 -16.17 62.76 -15.48 62.17 -14.89C61.58 -14.3 60.89 -13.83 60.11 -13.49C59.32 -13.15 58.48 -12.98 57.59 -12.98L51.09 -12.98ZM51.09 0L51.09 -6.5L57.59 -6.5C59.38 -6.5 61.06 -6.84 62.63 -7.52C64.21 -8.2 65.59 -9.13 66.77 -10.31C67.95 -11.49 68.88 -12.87 69.56 -14.45C70.24 -16.02 70.58 -17.7 70.58 -19.49C70.58 -20.68 70.42 -21.83 70.11 -22.93C69.8 -24.03 69.36 -25.07 68.8 -26.04C68.23 -27 67.55 -27.88 66.76 -28.68C65.97 -29.47 65.09 -30.15 64.13 -30.71C63.17 -31.28 62.14 -31.72 61.04 -32.03C59.93 -32.34 58.79 -32.49 57.59 -32.49L44.59 -32.49L44.59 0Z"/></g></g></svg>